<svg xmlns="http://www.w3.org/2000/svg" id="Layer_1" data-name="Layer 1" viewBox="0 0 3211.06 61.05"><defs><style> .cls-1 { fill: #fff; stroke-width: 0px; } </style></defs><g id="Group_279" data-name="Group 279"><g id="Dealertrack_without_CAI_BLACK" data-name="Dealertrack without CAI BLACK"><g id="Group_256" data-name="Group 256"><g id="Group_255" data-name="Group 255"><path id="Path_800" data-name="Path 800" class="cls-1" d="m780.07,16.57c2.59-.17,5.14.67,7.11,2.35,1.8,1.93,2.7,4.53,2.49,7.17.02,1.51-.17,3.01-.56,4.46-.33,1.21-.92,2.33-1.73,3.28-.82.91-1.85,1.61-2.99,2.03-1.38.49-2.84.73-4.31.69h-6.86v-19.98h6.86,0Zm.23,17.74c.3,0,.67-.02,1.12-.07.49-.05.97-.17,1.43-.34.53-.19,1.03-.45,1.5-.77.53-.37.98-.83,1.33-1.37.43-.67.76-1.4.97-2.17.27-1.03.4-2.09.38-3.15.02-1.08-.1-2.16-.35-3.21-.2-.88-.6-1.7-1.15-2.41-.55-.67-1.25-1.19-2.06-1.51-.99-.37-2.05-.55-3.11-.52h-4.49v15.51h4.44Z"></path><path id="Path_801" data-name="Path 801" class="cls-1" d="m802.77,35.63c-1.19.85-2.62,1.29-4.08,1.23-1.03.02-2.05-.17-3.01-.56-.82-.35-1.56-.89-2.14-1.57-.6-.7-1.04-1.52-1.3-2.41-.3-.99-.46-2.01-.49-3.04-.01-1.03.16-2.05.5-3.02.31-.88.79-1.68,1.41-2.38.6-.67,1.33-1.2,2.16-1.57.86-.38,1.79-.57,2.73-.56,1.12-.04,2.23.23,3.21.8.83.51,1.53,1.21,2.04,2.03.51.82.87,1.73,1.06,2.69.19.91.27,1.84.23,2.76h-10.82c-.02.61.06,1.22.23,1.81.16.56.44,1.07.81,1.51.39.45.88.81,1.43,1.05.65.27,1.34.41,2.04.39.88.04,1.75-.2,2.48-.69.68-.52,1.13-1.28,1.27-2.13h2.34c-.21,1.44-.96,2.75-2.1,3.67h0Zm-.58-9.29c-.64-1.53-2.14-2.51-3.79-2.49-.57,0-1.14.1-1.66.32-.48.2-.91.5-1.27.88-.36.38-.64.82-.84,1.3-.21.5-.33,1.04-.36,1.58h8.31c-.03-.55-.16-1.09-.37-1.6h0Z"></path><path id="Path_802" data-name="Path 802" class="cls-1" d="m820.38,36.5c-.53.27-1.12.39-1.71.36-.54.03-1.07-.16-1.47-.52-.41-.46-.61-1.08-.55-1.69-.61.75-1.39,1.33-2.28,1.69-1.49.57-3.12.67-4.67.29-.55-.13-1.07-.36-1.52-.69-.44-.33-.79-.75-1.02-1.25-.27-.58-.4-1.22-.38-1.86-.03-.7.12-1.39.42-2.02.26-.51.64-.94,1.11-1.27.48-.34,1.01-.59,1.57-.74.58-.17,1.19-.31,1.81-.42.65-.13,1.27-.23,1.86-.29.52-.05,1.04-.15,1.55-.28.39-.09.76-.28,1.06-.53.27-.27.42-.64.39-1.02.02-.44-.08-.87-.29-1.26-.18-.31-.44-.56-.76-.73-.32-.17-.67-.29-1.04-.34-.38-.05-.75-.08-1.13-.08-.88-.03-1.74.17-2.52.58-.72.48-1.14,1.3-1.09,2.17h-2.38c.01-.79.2-1.57.56-2.27.32-.6.78-1.11,1.34-1.5.58-.39,1.23-.67,1.92-.83.76-.17,1.53-.26,2.3-.25.65,0,1.3.05,1.94.14.61.08,1.2.28,1.75.57.52.29.95.71,1.26,1.22.34.62.51,1.33.47,2.04v7.43c-.01.41.02.82.1,1.23.06.26.29.39.66.39.25,0,.49-.04.73-.11v1.84h.01Zm-3.86-7.41c-.35.25-.75.41-1.18.49-.49.1-.99.19-1.52.25s-1.07.14-1.61.23c-.5.07-.99.21-1.46.4-.41.17-.77.45-1.05.79-.29.41-.43.91-.41,1.41-.01.34.07.69.23.99.15.26.36.49.62.65.27.18.57.3.88.36.35.08.71.11,1.06.11.69.02,1.37-.09,2.02-.32.51-.18.98-.45,1.38-.81.33-.29.6-.66.79-1.06.16-.34.24-.7.25-1.07v-2.44h0Z"></path><path id="Path_803" data-name="Path 803" class="cls-1" d="m825.11,16.57v19.98h-2.38v-19.98h2.38Z"></path><path id="Path_804" data-name="Path 804" class="cls-1" d="m839.05,35.63c-1.19.85-2.62,1.29-4.08,1.23-1.03.02-2.05-.17-3.01-.56-.82-.35-1.56-.89-2.14-1.57-.6-.7-1.04-1.52-1.3-2.41-.3-.99-.46-2.01-.49-3.04-.01-1.03.16-2.05.5-3.02.31-.88.79-1.68,1.41-2.38.6-.67,1.33-1.2,2.16-1.57.86-.38,1.79-.57,2.73-.56,1.12-.04,2.23.23,3.21.8.83.51,1.53,1.21,2.04,2.03.51.82.87,1.73,1.06,2.69.19.91.27,1.84.23,2.76h-10.82c-.02.61.06,1.22.23,1.81.16.56.44,1.07.81,1.51.39.45.88.81,1.43,1.05.65.27,1.34.41,2.04.39.88.04,1.75-.2,2.48-.69.68-.52,1.13-1.28,1.27-2.13h2.34c-.21,1.44-.96,2.75-2.1,3.67h0Zm-.58-9.29c-.64-1.53-2.14-2.51-3.79-2.49-.57,0-1.14.1-1.66.32-.48.2-.91.5-1.27.88-.36.38-.64.82-.84,1.3-.21.5-.33,1.04-.36,1.58h8.31c-.03-.55-.16-1.09-.37-1.6h0Z"></path><path id="Path_805" data-name="Path 805" class="cls-1" d="m845.99,22.08v3.05h.06c.47-1.04,1.2-1.94,2.13-2.6.96-.59,2.08-.87,3.2-.79v2.53c-.83-.02-1.66.11-2.44.39-.63.24-1.19.63-1.63,1.15-.43.54-.74,1.17-.9,1.84-.2.81-.29,1.64-.28,2.48v6.45h-2.39v-14.5h2.24Z"></path><path id="Path_806" data-name="Path 806" class="cls-1" d="m859.34,22.08v2.1h-2.89v8.98c0,.23.02.45.07.67.04.16.13.3.26.39.16.11.35.17.55.18.3.03.61.04.91.04h1.09v2.1h-1.82c-.53,0-1.06-.03-1.58-.13-.39-.06-.75-.22-1.06-.46-.29-.25-.5-.58-.6-.95-.15-.53-.21-1.08-.2-1.62v-9.21h-2.46v-2.1h2.46v-4.33h2.38v4.34h2.89Z"></path><path id="Path_807" data-name="Path 807" class="cls-1" d="m864.13,22.08v3.05h.06c.47-1.04,1.2-1.94,2.13-2.6.96-.59,2.08-.87,3.2-.79v2.53c-.83-.02-1.66.11-2.44.39-.63.24-1.19.63-1.63,1.15-.43.54-.73,1.17-.9,1.84-.2.81-.29,1.64-.28,2.48v6.45h-2.39v-14.5h2.24Z"></path><path id="Path_808" data-name="Path 808" class="cls-1" d="m884.11,36.5c-.53.27-1.12.39-1.71.36-.54.03-1.07-.16-1.47-.52-.41-.46-.61-1.08-.55-1.69-.61.75-1.39,1.33-2.28,1.69-1.49.57-3.12.67-4.67.29-.55-.13-1.07-.36-1.52-.69-.44-.33-.79-.75-1.02-1.25-.27-.58-.4-1.22-.38-1.86-.03-.7.12-1.39.42-2.02.26-.5.64-.94,1.1-1.27.48-.34,1.01-.59,1.57-.74.58-.17,1.19-.31,1.81-.42.65-.13,1.27-.23,1.86-.29.52-.05,1.04-.15,1.55-.28.39-.09.76-.28,1.06-.53.27-.27.42-.64.39-1.02.02-.44-.08-.87-.29-1.26-.18-.31-.44-.56-.76-.73-.32-.17-.67-.29-1.04-.34-.38-.05-.75-.08-1.13-.08-.88-.03-1.74.17-2.52.58-.72.48-1.14,1.3-1.09,2.17h-2.38c.01-.79.2-1.57.56-2.27.32-.6.78-1.11,1.34-1.5.58-.39,1.23-.67,1.92-.83.76-.17,1.53-.26,2.3-.25.65,0,1.3.05,1.94.14.61.08,1.2.28,1.75.57.52.29.95.71,1.26,1.22.34.62.51,1.33.47,2.04v7.43c-.01.41.02.82.1,1.23.06.26.29.39.66.39.25,0,.49-.04.73-.11v1.84h.02Zm-3.86-7.41c-.35.25-.75.41-1.18.49-.49.1-.99.19-1.52.25s-1.07.14-1.61.23c-.5.07-.99.21-1.46.4-.41.17-.77.45-1.05.79-.29.41-.43.91-.41,1.41-.01.34.07.69.23.99.15.26.36.49.62.65.27.18.57.3.88.36.35.08.71.11,1.06.11.69.02,1.37-.09,2.02-.32.51-.18.98-.45,1.38-.81.33-.29.6-.66.79-1.06.16-.34.24-.7.25-1.07v-2.44h0Z"></path><path id="Path_809" data-name="Path 809" class="cls-1" d="m894.97,24.6c-.69-.53-1.54-.8-2.41-.76-.75-.03-1.49.14-2.16.47-.56.3-1.03.73-1.38,1.26-.36.55-.61,1.16-.74,1.81-.15.69-.23,1.4-.23,2.11,0,.66.07,1.32.23,1.96.15.6.4,1.18.74,1.69.34.5.79.9,1.31,1.19,1.53.74,3.34.55,4.69-.47.7-.7,1.13-1.62,1.22-2.6h2.44c-.15,1.57-.86,3.04-2,4.14-1.22,1.02-2.79,1.54-4.37,1.46-1,.02-1.99-.16-2.92-.53-.82-.33-1.55-.85-2.13-1.51-.58-.68-1.02-1.48-1.29-2.34-.3-.96-.44-1.97-.43-2.98,0-1.03.13-2.05.42-3.03.26-.9.69-1.74,1.27-2.46.58-.71,1.31-1.27,2.14-1.65.94-.42,1.96-.63,2.99-.6.78,0,1.55.09,2.3.29.69.18,1.33.49,1.9.91.56.42,1.02.95,1.36,1.55.37.69.6,1.45.67,2.23h-2.46c-.13-.82-.55-1.58-1.18-2.13h0Z"></path><path id="Path_810" data-name="Path 810" class="cls-1" d="m903.87,16.57v11.84l6.6-6.33h3.19l-5.74,5.26,6.16,9.21h-3.02l-4.96-7.56-2.24,2.07v5.48h-2.38v-19.98h2.38Z"></path></g></g><path id="Path_811" data-name="Path 811" class="cls-1" d="m741.13,6.44c-11.08,0-20.05,8.98-20.06,20.05,0,11.08,8.98,20.05,20.05,20.06,11.08,0,20.05-8.98,20.06-20.05h0c0-11.08-8.98-20.05-20.05-20.06Zm-3.62,28.31h-10.32l2.66-9.44c.71-2.14,2.62-3.65,4.86-3.84h5.01l-1.03,3.68h-4.28c-.47,0-.88.3-1.04.74l-1.47,5.16h5.76c.48.04.91-.27,1.03-.74l3.54-12.98h3.68l-3.68,13.72c-.52,2.18-2.48,3.71-4.72,3.68h0Zm5.46,0l4.72-17.27h3.84l-3.85,13.59c-.52,2.18-2.48,3.71-4.72,3.68Zm11.65-9.3h-3.68l1.03-3.68h3.68l-1.03,3.68Z"></path></g><g id="Dealer.com_without_CAI_BLACK" data-name="Dealer.com without CAI BLACK"><g id="Group_260" data-name="Group 260"><g id="Group_257" data-name="Group 257"><path id="Path_812" data-name="Path 812" class="cls-1" d="m547.13,16.15c2.59-.17,5.14.67,7.12,2.35,1.8,1.94,2.71,4.54,2.5,7.18.02,1.51-.17,3.01-.56,4.47-.33,1.21-.92,2.33-1.74,3.28-.82.91-1.85,1.61-2.99,2.03-1.38.49-2.85.73-4.32.69h-6.88v-20h6.87Zm.23,17.78c.3,0,.67-.02,1.12-.07.49-.05.97-.17,1.43-.34.53-.19,1.04-.45,1.5-.77.53-.37.98-.84,1.33-1.38.43-.67.76-1.4.97-2.17.27-1.03.4-2.09.38-3.15.02-1.08-.1-2.16-.35-3.21-.2-.88-.6-1.7-1.15-2.41-.55-.67-1.26-1.2-2.07-1.52-.99-.37-2.05-.55-3.11-.52h-4.49v15.54h4.44Z"></path><path id="Path_813" data-name="Path 813" class="cls-1" d="m569.87,35.24c-1.19.85-2.63,1.29-4.09,1.23-1.03.02-2.06-.17-3.01-.56-.82-.36-1.56-.89-2.14-1.57-.6-.71-1.04-1.53-1.3-2.41-.3-.99-.46-2.02-.49-3.06-.01-1.03.16-2.06.51-3.03.31-.88.79-1.69,1.41-2.38.6-.67,1.34-1.21,2.16-1.57.86-.38,1.79-.57,2.73-.56,1.12-.04,2.24.23,3.21.8.83.51,1.53,1.21,2.05,2.03.52.83.88,1.74,1.06,2.69.19.91.27,1.84.23,2.76h-10.85c-.02.61.06,1.22.23,1.81.16.56.44,1.07.81,1.52.39.45.88.81,1.43,1.05.65.27,1.34.41,2.05.39.88.04,1.75-.2,2.48-.69.68-.52,1.14-1.28,1.28-2.13h2.35c-.21,1.45-.96,2.76-2.1,3.67h0Zm-.58-9.31c-.2-.49-.5-.93-.87-1.3-.37-.37-.81-.66-1.29-.87-.52-.22-1.08-.33-1.64-.32-.57,0-1.14.1-1.67.32-.48.2-.92.5-1.28.88-.36.38-.64.82-.84,1.3-.21.5-.33,1.04-.36,1.58h8.33c-.04-.55-.16-1.09-.38-1.6h0Z"></path><path id="Path_814" data-name="Path 814" class="cls-1" d="m587.51,36.11c-.53.27-1.12.4-1.71.36-.54.03-1.07-.16-1.47-.52-.41-.47-.61-1.08-.55-1.7-.61.75-1.39,1.33-2.28,1.7-.9.35-1.85.53-2.82.52-.63,0-1.26-.08-1.87-.23-.55-.13-1.07-.36-1.53-.69-.44-.33-.79-.76-1.02-1.25-.27-.58-.4-1.22-.38-1.87-.03-.7.12-1.39.42-2.02.27-.51.64-.94,1.11-1.28.48-.34,1.01-.59,1.57-.74.59-.17,1.2-.31,1.81-.42.65-.13,1.28-.23,1.87-.3.53-.05,1.05-.15,1.56-.28.39-.09.76-.28,1.07-.53.27-.27.42-.64.39-1.02.02-.44-.08-.88-.3-1.26-.18-.31-.45-.56-.76-.73-.32-.17-.67-.29-1.04-.34-.38-.05-.76-.08-1.14-.08-.88-.03-1.75.17-2.53.58-.72.48-1.14,1.3-1.09,2.17h-2.38c.01-.79.2-1.57.56-2.27.32-.6.78-1.11,1.34-1.5.58-.39,1.23-.67,1.92-.83.76-.17,1.53-.26,2.3-.25.65,0,1.3.05,1.95.14.61.08,1.21.28,1.75.58.52.29.96.71,1.26,1.22.34.62.5,1.33.47,2.04v7.44c-.01.41.02.83.1,1.23.06.26.29.39.66.39.25,0,.49-.04.73-.11v1.84h.03Zm-3.87-7.43c-.35.25-.75.41-1.18.49-.49.1-.99.19-1.53.25s-1.07.14-1.61.23c-.5.07-.99.21-1.46.41-.41.17-.77.44-1.05.79-.29.41-.43.91-.41,1.41-.01.34.07.69.23.99.15.26.36.49.62.66.27.18.57.3.88.36.35.07.71.11,1.07.11.69.02,1.37-.09,2.02-.32.51-.18.98-.45,1.38-.81.33-.3.6-.66.79-1.06.16-.34.24-.7.25-1.07v-2.43h0Z"></path><path id="Path_815" data-name="Path 815" class="cls-1" d="m592.24,16.15v20.02h-2.38v-20.02h2.38Z"></path><path id="Path_816" data-name="Path 816" class="cls-1" d="m606.21,35.24c-1.19.85-2.63,1.29-4.09,1.23-1.03.02-2.06-.17-3.01-.56-.82-.36-1.56-.89-2.14-1.57-.6-.71-1.04-1.53-1.3-2.41-.3-.99-.46-2.02-.49-3.06-.01-1.03.16-2.06.51-3.03.31-.88.79-1.69,1.41-2.38.6-.67,1.34-1.21,2.16-1.57.86-.38,1.79-.57,2.73-.56,1.12-.04,2.24.23,3.21.8.83.51,1.53,1.21,2.05,2.03.52.83.88,1.74,1.06,2.69.19.91.27,1.84.23,2.76h-10.86c-.02.61.06,1.22.23,1.81.16.56.44,1.07.81,1.52.39.45.88.81,1.43,1.05.65.27,1.34.41,2.05.39.88.04,1.75-.2,2.48-.69.68-.52,1.13-1.28,1.28-2.13h2.35c-.21,1.45-.97,2.76-2.11,3.68h.02Zm-.58-9.31c-.2-.49-.5-.93-.87-1.3-.37-.37-.81-.66-1.29-.87-.52-.22-1.08-.33-1.64-.32-.57,0-1.14.1-1.67.32-.48.2-.92.5-1.28.88-.36.38-.64.82-.84,1.3-.21.5-.33,1.04-.36,1.58h8.33c-.04-.55-.16-1.09-.38-1.6h0Z"></path></g><g id="Group_258" data-name="Group 258"><path id="Path_817" data-name="Path 817" class="cls-1" d="m613.16,21.67v3.06h.06c.47-1.04,1.2-1.94,2.13-2.61.96-.59,2.07-.87,3.2-.79v2.53c-.83-.02-1.66.11-2.44.39-.63.23-1.2.63-1.63,1.15-.43.54-.74,1.17-.9,1.84-.2.81-.29,1.65-.28,2.48v6.45h-2.38v-14.51h2.25,0Z"></path></g><g id="Group_259" data-name="Group 259"><path id="Path_818" data-name="Path 818" class="cls-1" d="m621.4,33.05v3.11h-3.11v-3.11h3.11Z"></path><path id="Path_819" data-name="Path 819" class="cls-1" d="m634.21,24.2c-.69-.54-1.54-.8-2.41-.76-.75-.03-1.49.14-2.16.47-.56.3-1.03.74-1.38,1.26-.36.55-.61,1.16-.74,1.81-.15.69-.23,1.4-.23,2.12,0,.66.07,1.32.23,1.96.14.61.4,1.18.74,1.7.34.5.79.9,1.32,1.19.6.31,1.26.47,1.93.45,1.01.06,2-.27,2.76-.92.7-.7,1.14-1.62,1.22-2.61h2.44c-.16,1.58-.87,3.04-2.01,4.14-1.23,1.03-2.79,1.55-4.39,1.46-1,.02-2-.16-2.93-.53-.82-.33-1.55-.85-2.13-1.52-.59-.68-1.03-1.48-1.29-2.34-.3-.97-.44-1.98-.43-2.99,0-1.03.13-2.05.42-3.04.26-.9.69-1.74,1.28-2.47.58-.71,1.31-1.27,2.14-1.66.94-.42,1.96-.62,2.99-.6.78,0,1.55.09,2.3.29.69.18,1.34.5,1.91.92.56.42,1.02.95,1.36,1.56.37.69.6,1.45.67,2.23h-2.47c-.14-.82-.55-1.58-1.18-2.13h.02Z"></path><path id="Path_820" data-name="Path 820" class="cls-1" d="m640.26,25.95c.28-.89.74-1.71,1.34-2.41.61-.69,1.37-1.24,2.22-1.61,1.95-.79,4.12-.79,6.07,0,.84.37,1.59.92,2.2,1.61.61.7,1.07,1.52,1.34,2.41.6,1.94.6,4.02,0,5.96-.28.88-.74,1.7-1.34,2.39-.61.69-1.36,1.23-2.2,1.6-1.95.77-4.12.77-6.07,0-.85-.36-1.61-.91-2.22-1.6-.61-.7-1.06-1.51-1.34-2.39-.31-.96-.46-1.96-.45-2.97,0-1.01.14-2.02.45-2.99Zm2.43,5.33c.2.63.53,1.21.97,1.71.4.45.89.81,1.45,1.05,1.7.76,3.7.33,4.95-1.05.43-.5.76-1.08.97-1.71.47-1.53.47-3.16,0-4.68-.21-.63-.54-1.22-.97-1.72-.4-.46-.89-.82-1.45-1.07-1.12-.49-2.39-.49-3.5,0-.55.25-1.05.61-1.45,1.07-.43.51-.76,1.09-.97,1.72-.47,1.53-.47,3.16,0,4.68h0Z"></path><path id="Path_821" data-name="Path 821" class="cls-1" d="m658.94,21.67v2.13h.06c1.57-2.31,4.6-3.12,7.12-1.91.75.4,1.31,1.09,1.54,1.91.47-.77,1.13-1.4,1.92-1.82.81-.43,1.71-.65,2.62-.64.67-.01,1.33.07,1.98.23.55.14,1.07.39,1.52.74.43.35.77.8.98,1.3.25.61.37,1.26.35,1.92v10.62h-2.38v-9.5c0-.42-.04-.85-.11-1.26-.06-.37-.21-.72-.42-1.02-.22-.3-.51-.54-.85-.69-.45-.18-.93-.27-1.41-.25-1.02-.06-2.03.31-2.78,1.01-.69.72-1.06,1.69-1.01,2.69v9.03h-2.38v-9.5c0-.43-.04-.87-.13-1.29-.07-.37-.22-.71-.43-1.02-.21-.29-.5-.53-.83-.67-.42-.17-.88-.25-1.33-.23-.62-.02-1.23.13-1.78.42-.46.25-.87.6-1.2,1.01-.29.36-.52.78-.67,1.22-.12.34-.2.69-.21,1.05v9.03h-2.39v-14.51h2.24,0Z"></path></g></g><path id="Path_822" data-name="Path 822" class="cls-1" d="m519.83,8.85c0,.06.13.04.09.1.04,0,.1-.02.06.02.21.09.41.2.59.33.02,0,.09-.02.05.02.04,0,.11.02.1.06.06,0,.12.04.14.1.27.13.53.28.78.44-.01,0-.02.02-.02.03.04-.02.07-.02.04.03.13.06.23.12.35.18l-.02.02s.02.01.03.02c.05.03.17.13.17.11.02.02.07.02.05.06.05,0,.07,0,.05.02.08.03.16.08.21.15.06,0,.17.13.21.15s.17.13.2.14c.06.06.23.21.28.26.02.02.02.03.05.02.12.17.34.33.5.54-.1.04-.14.11-.24.13-.26-.19-.46-.41-.75-.62.02.13.17.27.19.44-.35-.13-.71-.23-1.07-.3-.06-.13-.16-.25-.28-.34-.07-.06-.3-.27-.28-.36.02-.16.23-.13.23-.3,0-.07-.1-.17-.1-.17-.08-.07-.16-.14-.25-.2-.06-.05-.02-.06-.09-.04,0-.09-.17-.09-.18-.16-.01,0-.03.01-.05.02-.02-.02,0-.02,0-.04s-.05.02-.06-.03c-.09-.03-.24-.15-.35-.19.07.04-.02.05,0-.02-.07.02-.13-.06-.19-.07,0,.02,0,.03-.03-.03-.04.03-.2-.09-.28-.13-.02.06-.06-.02-.13-.05h0s-.09-.06-.12-.06h0c-.07-.05-.13-.18-.2-.25.13-.04.21-.02.33-.06"></path><path id="Path_823" data-name="Path 823" class="cls-1" d="m518.79,8.58s-.02.03-.02.03c.17.05.24.2.35.28-.07,0-.13-.02-.2-.05,0,0-.02,0-.02-.02,0,0,0,.02.02.02-.23-.02-.35-.25-.52-.36.07.03.28.06.38.1"></path><path id="Path_824" data-name="Path 824" class="cls-1" d="m518.04,8.14s-.05,0-.08,0c0,0,.01.02.02.03-.03,0-.03-.03-.07-.02h0c-.08-.02-.17-.06-.25-.07h0s-.09-.05-.14-.05c0-.03,0-.06-.05-.09.16.02.48.06.57.19"></path><path id="Path_825" data-name="Path 825" class="cls-1" d="m512.7,7.29c.49-.05.99,0,1.47.13.02,0,.03,0,.05.02.33.14.67.24,1.02.31.47.04.93.15,1.36.35-.05.03-.1.04-.16.03.02.03.02.02,0,.02h0s-.02,0-.02,0h.02c-.23.02-.49-.02-.77,0,.11-.06-.09,0-.17,0s-.37-.05-.51-.06-.17-.06-.3-.02c0-.02.03,0,.03-.04-.1.02-.16-.02-.24,0s-.05,0,.02-.02c-.1,0-.19-.02-.28-.04-.23-.06-.57-.06-.69-.26.18,0,.32,0,.41-.1-.02-.08-.12-.07-.18-.06h.03c-.16-.02-.33-.02-.5,0,.18-.05-.23-.03-.31-.03h-.37c.03-.07.07-.14.11-.2"></path><path id="Path_826" data-name="Path 826" class="cls-1" d="m530.58,24.96c-.68-10.89-10.05-19.17-20.94-18.49-10.89.68-19.17,10.05-18.49,20.94.68,10.89,10.05,19.17,20.94,18.49,10.88-.66,19.16-10.02,18.5-20.9,0-.02,0-.03,0-.05Zm-6.31,11.17h0c-.46.41-.96.82-1.45,1.21-.12.34-.2.72-.3,1.01-.03.1-.06.19-.11.28-.09.14-.2.26-.32.37-.25.23-.44.41-.69.67-.11.13-.23.24-.36.34-.16.05-.33.09-.5.11-.17.03-.33.07-.5.12-.23.67-.43,1.29-.69,1.9-.28.09-.54.08-.79.17-.18.08-.35.17-.51.28-.16.11-.33.2-.51.27-.18.05-.36.08-.55.09-.19.04-.37.06-.58.09-.05.15-.09.3-.12.46-.46.06-.94.13-1.43.15-.02.28,0,.61,0,.92-.12.02-.23.09-.33.09.02.14.18.23.09.44-.16.04-.25.13-.4.16-.07.06-.07.17-.17.19.07.02-.13-.03-.16.02h.05s-.11,0-.16,0c-.09.01-.18.02-.27.02,0,.02.02.02.03.02-.3,0-.58-.09-.84-.23.02-.09.02-.19.02-.28-.24-.08-.48-.14-.72-.19.03-.1.06-.21.09-.32.02-.11.1-.24.09-.32s-.21-.19-.28-.23c-.1-.06-.2-.13-.28-.21.02-.76,0-1.56.04-2.36.03-.29.03-.58,0-.87-.07-.17-.17-.32-.29-.45-.1-.17-.2-.3-.28-.45.24-.37.53-.71.78-1.09.08-.1.23-.25.25-.35.06-.25-.04-.46,0-.74-1.25-.79-2.59-1.5-3.8-2.33.06-.53.13-1.09.21-1.63-.39-.17-.83-.28-1.23-.43-.23-.34-.43-.69-.65-1.06,0-.3.06-.59.17-.87.16-.58.35-1.17.52-1.75.65-.61,1.35-1.15,2.02-1.74-.21-.5-.32-1-.54-1.47-.09-.15-.23-.31-.35-.46-.36-.46-.71-.95-1.07-1.39-.17-.09-.42-.06-.61-.14-.07-.03-.17-.17-.25-.24s-.17-.17-.24-.23c-.14-.18-.3-.34-.48-.49-.18-.1-.37-.19-.56-.28-.45-.23-.89-.46-1.38-.72-.08-.06-.16-.1-.25-.14-.34-.03-.68-.03-1.02,0h-1.02c-.19-.5-.38-1.03-.57-1.57-.08-.17-.14-.35-.19-.53,0-.16.02-.31.07-.46.08-.42.17-.88.26-1.31-.05-.23-.23-.37-.28-.62,0-.18,0-.35.03-.53.07-.52.09-1.05.08-1.57-.13,0-.09.06-.13.15-.05,0-.1,0-.14.02-.2.5-.37,1-.56,1.5-.19.52-.34,1.05-.46,1.58-.05.02-.14,0-.18.04-.03-.2-.07-.39-.13-.58-.04-.11-.14-.23-.14-.33.05-.18.13-.35.23-.5.09-.15.17-.3.23-.46.17-.48.23-.98.38-1.48-.17-.09-.35-.17-.53-.23.16-.56.38-1.1.66-1.61.1-.1.21-.18.33-.24.76-.57,1.5-1.22,2.2-1.84.86-.66,1.63-1.44,2.28-2.3-.23,0-.44.13-.75.11-.25-.03-.39-.16-.58-.15-.1,0-.21.03-.31.05t0,0c-.19.03-.37.1-.53.2.02-.02.02-.02.02-.02-.01.01-.03.03-.05.04,0,0-.02,0-.02.02,0,0,.02,0,.02-.02v-.02c-.17.13-.46.2-.61.3h-.04c-.09.06-.23.09-.27.13.06-.03-.02.04-.05,0-.06.03-.12.06-.17.1,0-.02.03-.02.02-.03-.15.07-.3.15-.43.25-.02-.06-.03,0-.1.02s-.13.12-.12.06c-.12.09-.21.1-.25.17-.09,0-.08.06-.13.03-.28.23-.58.45-.9.64.3-.26.61-.49.94-.71.38-.31.79-.59,1.22-.81.05-.03.11-.06.15-.1.12-.07.24-.14.37-.19.83-.43,1.7-.79,2.6-1.07.31-.04.64-.25.94-.1.52-.03,1.09-.32,1.68-.38.16-.04.33-.04.5.02.16.06.32.11.49.14.2.01.41,0,.61-.04.17-.03.34-.08.5-.16.26-.06.52-.08.79-.07.25-.03.5-.02.74.02.23.09.38.33.58.37.35.06.83-.06,1.13.03.09.02.15.09.24.12.36.13.75.19,1.13.2.77.06,1.54.18,2.3.35.16.03.32.1.45.21.13.1.25.26.36.3.21.02.43-.03.61-.15,0-.29-.28-.32-.34-.58.18-.03.3.1.43.19.36.26.69.55,1,.88.44.12.85.29,1.28.42-.1.03-.07.08-.1.13-.33-.03-.66-.11-.97-.23-.21-.08-.46-.17-.69-.24-.31-.1-.62-.17-.95-.19-.07,0,0,.17-.07.19-.31.06-.54-.13-.8-.12-.09.12-.1.28-.21.36-.21.17-.56.13-.81.26-.25.12-.42.36-.44.64,0,.69.72,1.13,1.25,1.31.21.09.44.14.67.17.21-.02.43-.06.64-.11.69-.07,1.23-.64,1.27-1.33.32.06.61.17.92.23,0-.02-.06-.15-.02-.23.1-.04.21-.04.3.02.31.21.59.45.83.73.33.29.73.5,1.15.62.14.04.28.09.41.14.09.06.21.21.33.31-.04.03-.09-.02-.13-.02-.1.07-.15.2-.12.32.02.33.34.63.51.86.23.06.42.13.64.18.04.1.03.23.09.28-.43.07-.19.68-.44.88-.27.14-.59.14-.86,0-.15-.06-.33-.33-.46-.46-.47-.54-1.12-.88-1.83-.95-.37.02-.73.12-1.06.3,0,.13.15.13.23.14.74.12,1.57.36,1.81.97.03.08.04.16.04.24-.42-.06-.82-.11-1.22-.14s-.83-.13-1.24-.13c-.67,0-1.17.43-1.72.58-.21.06-.43.09-.63.13-.38.08-.73.26-1.02.51-.13.12-.25.26-.35.41-.07.17-.15.34-.24.5-.23.23-.72.13-1.12.19-.23.03-.37.23-.54.21s-.23-.23-.36-.23c-.09,0-.21.12-.28.17-.46.3-.95.39-.92,1.2,0,.23.1.46.1.65,0,.42-.5.48-.62.74-.51-.05-.44-.68-.46-1.24-.04-.46-.04-1.03-.33-1.19-.2-.07-.4-.13-.61-.16-.78-.21-1.59-.3-2.39-.28-.81.02-1.51.19-2.3.23-.08.27-.2.52-.35.76-.28.34-.78.38-1.08.71-.02.94.28,1.85.85,2.59.68.08,1.35-.2,1.79-.72.23.02.4-.02.62,0-.11.3-.26.58-.46.83-.08.1-.23.28-.24.38,0,.21.05.41.13.6.02.21.06.42.12.62.55,0,1.08-.03,1.64-.02.06.59.04,1.19.09,1.75.98.23,1.98.46,2.97.68.06-.12.06-.32.12-.44.28.01.55.04.83.08.12.03.28.21.4.33.12.14.25.26.4.35.19.05.39.07.58.08.61.09,1.15.16,1.77.23.14.21.27.41.4.61.17.05.33.1.51.16.18.03.35.08.53.13.21.11.35.43.55.58-.14.32-.32.62-.46.92.23.22.49.42.76.6.1.07.19.17.25.19.13.01.26,0,.38-.02.28-.02.51-.02.79-.02.17.42.34.92.51,1.38.07.16.13.32.16.49-.03.18-.09.36-.19.51-.06.2-.11.35-.17.53.33-.13.66-.27.97-.43.1-.05.21-.09.32-.13.1,0,.26.13.34.17.13.07.21.14.33.2.1.18.1.44.21.62.11.12.23.22.36.31.11.12.23.22.37.3.23.08.54-.02.83.04.24.3.46.63.65.96.28.06.54.15.81.2-.12.53-.24,1.06-.37,1.61h0Zm-9.56-13.07h0c-.03.4-.24.4-.63.35-.34-.06-.74-.14-1.1-.2v-.24s.13,0,.19-.02c.06-.17.1-.35.12-.53.03-.17.07-.35.13-.51.61-.11,1.18.3,1.29.91.01.08.02.16.01.25h0Zm-2.25-1.28c-.15.04-.3.11-.43.21-.06.05-.17.15-.26.15-.14,0-.3-.23-.38-.33-.09-.14-.2-.28-.32-.4-.05-.05-.21-.17-.23-.23-.02-.13.15-.19.13-.3.29.17.66.18.92.35.1.08.2.16.3.25.11.1.22.16.26.31h0Zm-2.07-.55h0c-.43.11-.98.08-1.18-.2-.17-.23-.14-.61-.46-.68.37-.08.75-.07,1.11.02.14.02.28.06.4.13.12.13.06.58.13.72h0Z"></path></g><g id="Group_269" data-name="Group 269"><g id="Group_267" data-name="Group 267"><path id="Path_833" data-name="Path 833" class="cls-1" d="m8.66,18.13l6.23,18.26h-3.31l-1.17-3.75h-6.12l-1.2,3.75H0l6.2-18.26h2.46Zm-1.29,4.94l-2.16,6.76h4.31l-2.07-6.76h-.07Zm11.66-.93v8.81c-.1.77.06,1.56.46,2.22.5.5,1.2.75,1.9.67.7.08,1.4-.17,1.9-.67.4-.67.56-1.45.46-2.22v-8.81h2.99v9.25c.27,2.6-1.62,4.92-4.21,5.2-.37.04-.75.03-1.12-.02-2.58.37-4.98-1.43-5.34-4.02-.05-.39-.06-.78-.02-1.16v-9.25h2.98Zm14.72-3.36v3.36h3.01v2.34h-3.01v6.68c-.1.75.07,1.51.5,2.13.47.46,1.13.67,1.79.58.22,0,.45,0,.67-.03v2.66c-.38.05-.77.07-1.15.06-1.34.12-2.67-.36-3.63-1.32-.92-1.16-1.34-2.63-1.17-4.1v-6.68h-2.19v-2.34h2.19v-3.36h2.99Zm4.77,8.4c-.29-2.6,1.59-4.94,4.19-5.22.39-.04.78-.04,1.16.02,2.59-.36,4.98,1.45,5.34,4.04.05.39.06.78.02,1.16v4.21c.27,2.6-1.61,4.92-4.21,5.2-.38.04-.77.03-1.15-.02-2.59.36-4.97-1.44-5.33-4.03-.05-.38-.06-.77-.02-1.15v-4.21Zm2.99,3.77c-.1.77.06,1.56.46,2.22.5.5,1.2.75,1.9.67.7.08,1.4-.17,1.9-.67.4-.67.56-1.45.46-2.22v-3.37c.1-.77-.06-1.56-.46-2.22-.5-.5-1.2-.75-1.9-.67-.7-.08-1.4.17-1.9.67-.4.67-.56,1.45-.46,2.22v3.37Zm14.37-12.17v3.36h3.01v2.34h-3.02v6.68c-.1.75.07,1.51.5,2.13.47.46,1.13.67,1.78.58.23,0,.45,0,.67-.03v2.66c-.38.05-.77.07-1.15.06-1.34.12-2.67-.36-3.63-1.32-.92-1.16-1.34-2.63-1.17-4.1v-6.68h-2.19v-2.34h2.19v-3.36h3Zm8.37,3.36l.06,1.64c.7-1.17,1.97-1.86,3.33-1.81.35,0,.7.02,1.05.06v2.84c-.25-.03-.51-.04-.76-.03-.98-.09-1.96.22-2.72.85-.58.7-.86,1.61-.76,2.52v8.19h-2.99v-14.25h2.79Zm16.8,0v14.25h-2.61l-.06-1.46c-.79,1.08-2.06,1.69-3.39,1.64-1.25.05-2.47-.39-3.39-1.23-.95-1.06-1.4-2.48-1.26-3.89v-4.35c-.15-1.42.31-2.85,1.26-3.91.92-.84,2.14-1.28,3.39-1.23,1.29-.07,2.53.48,3.33,1.49l.09-1.32h2.63Zm-7.73,8.72c0,1.29.12,1.84.56,2.34.44.43,1.05.66,1.67.61.64.02,1.27-.2,1.75-.61.6-.69.88-1.61.76-2.52v-2.87c.12-.92-.16-1.84-.76-2.55-.49-.42-1.12-.63-1.75-.58-.62-.06-1.23.15-1.67.58-.44.46-.56,1.08-.56,2.37v3.22Zm21.3-14.02v19.55h-2.6l-.12-1.38c-.75,1.05-1.99,1.64-3.28,1.55-1.27.05-2.51-.39-3.45-1.23-.95-1.06-1.4-2.48-1.26-3.89v-4.34c-.15-1.42.31-2.85,1.26-3.91.96-.84,2.21-1.28,3.48-1.23,1.1-.03,2.18.37,2.99,1.11v-6.22h2.98Zm-7.73,14.02c0,1.29.12,1.84.56,2.34.44.43,1.05.66,1.67.61.64.02,1.27-.2,1.75-.61.6-.69.88-1.61.76-2.52v-2.87c.12-.92-.16-1.84-.76-2.55-.49-.42-1.12-.63-1.75-.58-.62-.06-1.23.15-1.67.58-.44.46-.56,1.08-.56,2.37v3.22Zm10.59-3.68c-.32-2.56,1.5-4.9,4.06-5.22.4-.05.81-.05,1.21,0,2.56-.35,4.91,1.44,5.26,4,.05.4.06.81,0,1.21v2.4c.05.39-.24.75-.63.79-.06,0-.13,0-.19,0h-6.73v.67c0,1.7.23,2.87,2.28,2.87,1.58,0,2.25-.76,2.25-2.16h2.95v.06c0,3.13-1.96,4.77-5.21,4.77-2.55.35-4.91-1.43-5.26-3.98-.05-.4-.06-.8-.01-1.19v-4.22Zm2.99.82h4.57v-.46c0-1.73-.26-2.9-2.28-2.9-1.87,0-2.28.99-2.28,2.9v.46Zm13.2-5.85l.06,1.64c.7-1.17,1.98-1.86,3.34-1.81.35,0,.7.02,1.05.06v2.84c-.25-.03-.51-.04-.76-.03-.98-.09-1.96.22-2.72.85-.58.7-.86,1.61-.76,2.52v8.19h-2.99v-14.25h2.79Z"></path><path id="Path_834" data-name="Path 834" class="cls-1" d="m160.62,41.32h.11c.03.18.13.34.43.34.23,0,.38-.13.38-.31s-.1-.28-.39-.32-.46-.15-.46-.38.19-.38.46-.38c.23-.02.43.14.46.37h-.1c-.02-.18-.18-.3-.36-.27,0,0,0,0,0,0-.23,0-.35.1-.35.28s.08.24.38.29.48.14.48.41c-.01.24-.22.43-.46.42,0,0-.02,0-.03,0-.26.04-.51-.15-.54-.41,0,0,0-.01,0-.02m1.38-1.04h.16l.52,1.25.52-1.25h.16v1.46h-.11v-1.32l-.55,1.32h-.04l-.55-1.32v1.32h-.11v-1.46Z"></path><path id="Path_835" data-name="Path 835" class="cls-1" d="m144.13,6.44c-11.02,0-19.96,8.93-19.97,19.95,0,11.02,8.93,19.96,19.95,19.97,11.02,0,19.96-8.93,19.97-19.95h0c0-11.03-8.93-19.96-19.95-19.97m-.08,4.61h.17l2.65,14.63h-5.46l2.64-14.63Zm-10.02,26.91c-2.3-2.01-3.94-4.65-4.73-7.6h6.11l-1.37,7.6Zm-5.23-12.28c.29-6.12,4.18-11.48,9.92-13.65l-2.47,13.65h-7.45Zm15.34,16.08c-1.86,0-3.71-.34-5.45-1l1.88-10.4h7.14l1.88,10.4c-1.74.66-3.59,1-5.45,1m10.11-3.8l-4.67-25.92c7.93,2.99,11.94,11.85,8.94,19.79-.89,2.36-2.36,4.47-4.26,6.14"></path></g></g><g id="Group_1186" data-name="Group 1186"><g id="Group_1186-2" data-name="Group 1186-2"><path id="Path_275166" data-name="Path 275166" class="cls-1" d="m271.65,20.2c-1.02-.7-2.24-1.05-3.47-1.02-1.02-.04-2.02.19-2.93.65-.8.41-1.49,1-2.01,1.74-.53.74-.92,1.57-1.15,2.45-.25.94-.37,1.92-.38,2.89,0,1.04.13,2.09.38,3.1.22.9.61,1.76,1.15,2.52.53.72,1.21,1.32,2.01,1.74.91.44,1.92.66,2.93.65.77.01,1.53-.13,2.25-.41.64-.25,1.21-.64,1.67-1.15.46-.51.83-1.1,1.09-1.74.27-.7.43-1.43.48-2.18h2.52c-.11,2.11-1,4.11-2.49,5.62-1.58,1.4-3.65,2.12-5.76,2.01-1.33.02-2.65-.24-3.88-.75-1.07-.48-2.02-1.21-2.76-2.11-.75-.92-1.31-1.99-1.64-3.13-.74-2.56-.73-5.28.03-7.83.35-1.18.94-2.27,1.74-3.2.76-.93,1.73-1.66,2.83-2.15,1.22-.54,2.55-.8,3.88-.78.96,0,1.91.13,2.83.41.86.25,1.67.66,2.38,1.19.7.53,1.29,1.19,1.74,1.94.48.83.79,1.74.92,2.69h-2.52c-.14-1.26-.81-2.4-1.84-3.13"></path><path id="Path_275167" data-name="Path 275167" class="cls-1" d="m288.81,35.69c-1.13.8-2.5,1.21-3.88,1.15-.98.03-1.96-.16-2.86-.55-.79-.33-1.49-.84-2.04-1.5-.57-.68-.98-1.47-1.23-2.32-.29-.95-.45-1.94-.48-2.93,0-.98.16-1.96.48-2.89.3-.84.76-1.62,1.36-2.28.57-.63,1.27-1.14,2.04-1.5.82-.36,1.7-.54,2.59-.55,1.07-.03,2.13.23,3.07.75.79.48,1.46,1.15,1.94,1.94.48.79.82,1.65,1.02,2.55.19.87.27,1.77.23,2.66h-10.36c-.02.59.05,1.17.2,1.74.14.53.41,1.03.78,1.43.38.42.84.76,1.36.99.61.26,1.28.39,1.94.38.84.03,1.66-.22,2.35-.69.65-.5,1.09-1.23,1.23-2.04h2.25c-.16,1.43-.88,2.74-2.01,3.64m-.55-8.85c-.2-.46-.48-.89-.82-1.26-.34-.36-.76-.64-1.23-.82-.5-.21-1.03-.31-1.57-.31-.55,0-1.1.1-1.61.31-.47.19-.88.48-1.23.85-.35.36-.63.79-.82,1.26-.2.48-.31.98-.34,1.5h7.94c-.02-.53-.14-1.05-.34-1.53"></path><path id="Path_275168" data-name="Path 275168" class="cls-1" d="m295.52,22.78v2.18h.07c.89-1.63,2.64-2.61,4.5-2.52.78-.02,1.55.11,2.28.38.57.22,1.07.59,1.46,1.06.39.46.66,1.01.78,1.6.15.67.23,1.36.23,2.04v9.1h-2.28v-9.37c.12-1.42-.94-2.68-2.37-2.79-.14-.01-.29-.01-.43,0-.62-.01-1.23.09-1.81.31-.49.19-.93.51-1.26.92-.33.4-.59.87-.75,1.36-.18.56-.28,1.15-.27,1.74v7.8h-2.28v-13.79h2.12Z"></path><path id="Path_275169" data-name="Path 275169" class="cls-1" d="m314.15,22.78v2.01h-2.76v8.58c0,.22.02.43.07.65.04.16.14.29.27.38.15.1.33.16.51.17.28.03.57.04.85.03h1.05v2.01h-1.74c-.5,0-1-.03-1.5-.1-.37-.06-.72-.21-1.02-.44-.28-.24-.49-.56-.58-.92-.14-.51-.19-1.04-.17-1.57v-8.82h-2.35v-2.01h2.35v-4.12h2.28v4.15h2.73Z"></path><path id="Path_275170" data-name="Path 275170" class="cls-1" d="m318.71,22.78v2.89h.07c.44-1,1.15-1.86,2.04-2.49.91-.56,1.97-.83,3.03-.75v2.42c-.79-.01-1.57.11-2.32.38-.6.21-1.13.59-1.53,1.09-.4.51-.69,1.1-.85,1.74-.19.77-.28,1.56-.27,2.35v6.13h-2.28v-13.76h2.11Z"></path><path id="Path_275171" data-name="Path 275171" class="cls-1" d="m337.79,36.51c-.5.26-1.07.38-1.63.34-.51.02-1.01-.15-1.4-.48-.39-.45-.57-1.04-.51-1.64-.58.72-1.33,1.28-2.18,1.64-.86.33-1.77.5-2.69.48-.6,0-1.19-.07-1.77-.2-.53-.13-1.03-.37-1.46-.69-.42-.32-.76-.72-.99-1.19-.26-.55-.39-1.16-.38-1.77-.03-.67.11-1.34.41-1.94.25-.49.61-.91,1.05-1.23.46-.32.96-.56,1.5-.72.57-.18,1.15-.31,1.74-.41.61-.14,1.23-.2,1.77-.27.51-.05,1.01-.14,1.5-.27.38-.09.73-.26,1.02-.51.26-.26.39-.62.38-.99.02-.41-.08-.83-.27-1.19-.16-.3-.41-.55-.72-.69-.3-.17-.64-.28-.99-.31-.38-.03-.72-.07-1.09-.07-.84-.03-1.67.15-2.42.55-.69.46-1.09,1.24-1.06,2.07h-2.28c0-.75.19-1.49.55-2.15.31-.57.75-1.07,1.29-1.43.56-.37,1.19-.64,1.84-.78.73-.17,1.47-.24,2.21-.23.63,0,1.25.04,1.87.14.58.09,1.15.27,1.67.55.5.26.91.66,1.19,1.15.32.6.47,1.27.44,1.94v7.08c-.01.39.02.77.1,1.15.07.23.27.38.61.38.23,0,.47-.04.69-.1v1.8Zm-3.71-7.05c-.34.24-.72.4-1.12.48-.48.1-.95.17-1.46.23l-1.53.2c-.48.06-.95.19-1.4.38-.39.16-.73.42-.99.75-.26.39-.4.86-.38,1.33-.02.33.06.66.23.95.14.25.34.46.58.61.26.17.55.29.85.34.34.07.68.1,1.02.1.65.02,1.3-.09,1.91-.31.48-.16.93-.43,1.29-.78.3-.3.55-.65.75-1.02.15-.32.23-.67.23-1.02l.02-2.24Z"></path><rect id="Rectangle_512" data-name="Rectangle 512" class="cls-1" x="340" y="17.5" width="2.28" height="19.07"></rect><path id="Path_275172" data-name="Path 275172" class="cls-1" d="m352.74,17.5c2.47-.16,4.9.64,6.78,2.25,1.71,1.85,2.57,4.33,2.38,6.85.03,1.44-.16,2.87-.55,4.26-.31,1.16-.88,2.23-1.67,3.13-.78.87-1.76,1.54-2.86,1.94-1.32.48-2.72.71-4.12.69h-6.54v-19.08h6.57v-.03Zm.2,16.93c.27,0,.65-.03,1.05-.07.47-.04.92-.15,1.36-.31.51-.18.99-.43,1.43-.75.5-.34.93-.78,1.26-1.29.41-.64.72-1.34.92-2.07.26-.98.39-1.98.38-2.99.02-1.03-.1-2.06-.34-3.07-.18-.84-.55-1.62-1.09-2.28-.51-.65-1.2-1.15-1.98-1.43-.94-.37-1.95-.54-2.96-.51h-4.26v14.81h4.22v-.04Z"></path><path id="Path_275173" data-name="Path 275173" class="cls-1" d="m364.76,17.5h2.28v2.79h-2.28v-2.79Zm2.28,19.11h-2.28v-13.82h2.28v13.82Z"></path><path id="Path_275174" data-name="Path 275174" class="cls-1" d="m372.29,33.48c.21.34.51.62.85.82.37.21.77.36,1.19.44.45.1.91.14,1.36.14.34,0,.72-.03,1.12-.07.38-.05.74-.15,1.09-.31.32-.14.6-.35.82-.61.22-.31.33-.68.31-1.06.03-.54-.23-1.05-.69-1.33-.52-.33-1.08-.58-1.67-.75-.69-.2-1.4-.34-2.18-.51-.75-.14-1.48-.36-2.18-.65-.64-.25-1.21-.65-1.67-1.15-.48-.58-.72-1.32-.69-2.07-.01-.62.15-1.24.48-1.77.31-.49.71-.91,1.19-1.23.51-.33,1.08-.56,1.67-.69.6-.14,1.22-.22,1.84-.23.73,0,1.46.06,2.18.2.62.13,1.2.36,1.74.69.51.34.93.79,1.23,1.33.33.66.52,1.38.55,2.11h-2.28c0-.39-.13-.77-.34-1.09-.21-.28-.46-.52-.75-.72-.31-.17-.64-.3-.99-.38-.36-.07-.72-.1-1.09-.1-.34,0-.68.03-1.02.07-.33.03-.65.13-.95.27-.27.12-.51.31-.69.55-.18.25-.28.55-.27.85-.01.37.14.73.41.99.3.29.66.51,1.05.65.46.18.94.31,1.43.41.55.1,1.05.23,1.61.38s1.12.27,1.67.44c.51.16,1,.4,1.43.72.41.29.75.66,1.02,1.09.28.51.41,1.09.38,1.67.03.73-.15,1.44-.51,2.07-.35.54-.81,1-1.36,1.33-.59.35-1.23.6-1.91.72-.7.14-1.4.2-2.11.2-.73.01-1.46-.07-2.18-.23-.66-.15-1.28-.41-1.84-.78-.53-.37-.98-.86-1.29-1.43-.36-.67-.54-1.42-.55-2.18h2.28c-.03.43.08.86.31,1.23"></path><path id="Path_275175" data-name="Path 275175" class="cls-1" d="m386.25,22.78v1.84h.07c.36-.76.99-1.35,1.77-1.67.84-.35,1.75-.53,2.66-.51.96-.02,1.92.18,2.79.58.77.38,1.45.93,1.98,1.61.53.7.93,1.48,1.19,2.32.28.91.41,1.85.41,2.79,0,.94-.13,1.88-.38,2.79-.24.83-.64,1.61-1.19,2.28-.53.65-1.21,1.18-1.98,1.53-.87.4-1.81.6-2.76.58-.38,0-.75-.04-1.12-.1-.43-.08-.85-.2-1.26-.34-.41-.17-.79-.39-1.15-.65-.38-.27-.69-.62-.92-1.02h-.07v7.1h-2.28v-19.06l2.25-.07Zm8.17,4.87c-.15-.59-.42-1.15-.78-1.64-.36-.47-.81-.86-1.33-1.15-.6-.28-1.25-.42-1.91-.41-.67-.01-1.34.14-1.94.44-.52.29-.97.7-1.29,1.19-.34.51-.6,1.07-.75,1.67-.16.62-.24,1.26-.23,1.91,0,.67.07,1.33.23,1.98.14.6.4,1.16.75,1.67.35.5.82.89,1.36,1.15.63.3,1.32.45,2.01.44.69.03,1.37-.13,1.98-.44.51-.3.94-.7,1.26-1.19.33-.52.56-1.1.69-1.7.14-.65.21-1.31.2-1.98.01-.65-.07-1.31-.23-1.94"></path><path id="Path_275176" data-name="Path 275176" class="cls-1" d="m411.96,36.51c-.51.25-1.07.37-1.64.34-.51.02-1.01-.15-1.4-.48-.39-.45-.57-1.04-.51-1.64-.58.72-1.33,1.28-2.18,1.64-.86.33-1.77.5-2.69.48-.6,0-1.19-.07-1.77-.2-.53-.12-1.03-.36-1.46-.69-.42-.32-.76-.72-.99-1.19-.26-.55-.39-1.16-.38-1.77-.03-.67.11-1.34.41-1.94.25-.49.61-.91,1.05-1.23.46-.31.97-.55,1.5-.72.57-.17,1.15-.31,1.74-.41.61-.14,1.23-.2,1.77-.27.5-.04.99-.13,1.46-.27.38-.09.73-.26,1.02-.51.26-.26.39-.62.38-.99.02-.41-.08-.83-.27-1.19-.16-.3-.41-.55-.72-.69-.3-.17-.64-.28-.99-.31-.38-.03-.71-.07-1.09-.07-.84-.03-1.67.15-2.42.55-.69.46-1.09,1.24-1.05,2.07h-2.29c0-.75.19-1.49.55-2.15.31-.57.75-1.07,1.29-1.43.56-.37,1.19-.64,1.84-.78.73-.17,1.47-.24,2.21-.23.63,0,1.25.04,1.87.14.58.09,1.15.27,1.67.55.5.26.91.66,1.19,1.15.32.59.47,1.27.44,1.94v7.08c-.01.39.02.77.1,1.15.07.23.27.38.61.38.23,0,.47-.04.69-.1l.03,1.8Zm-3.68-7.05c-.34.24-.72.4-1.12.48-.48.1-.95.17-1.46.23l-1.53.2c-.48.06-.95.19-1.4.38-.39.16-.73.42-.99.75-.26.39-.4.86-.38,1.33-.02.33.06.66.23.95.13.26.33.47.58.61.26.17.55.29.85.34.34.07.68.1,1.02.1.66.01,1.32-.09,1.94-.31.48-.16.93-.43,1.29-.78.32-.28.57-.63.75-1.02.15-.32.23-.67.23-1.02l-.02-2.24Z"></path><path id="Path_275177" data-name="Path 275177" class="cls-1" d="m420,22.78v2.01h-2.76v8.58c0,.22.02.43.07.65.04.16.13.29.27.38.15.1.33.16.51.17.28.03.57.04.85.03h1.05v2.01h-1.74c-.5,0-1-.03-1.5-.1-.37-.06-.72-.21-1.02-.44-.28-.24-.49-.56-.58-.92-.14-.51-.19-1.04-.17-1.57v-8.82h-2.35v-2.01h2.35v-4.12h2.28v4.15h2.73Z"></path><path id="Path_275178" data-name="Path 275178" class="cls-1" d="m430.76,25.16c-.65-.5-1.46-.76-2.28-.72-.71-.01-1.41.14-2.04.44-.53.29-.98.7-1.33,1.19-.35.53-.59,1.12-.71,1.74-.14.66-.21,1.33-.2,2.01,0,.63.07,1.26.23,1.87.13.59.37,1.14.72,1.64.33.47.76.85,1.26,1.12.57.29,1.2.43,1.84.41.96.06,1.9-.26,2.62-.88.67-.66,1.08-1.55,1.15-2.49h2.34c-.14,1.5-.82,2.9-1.91,3.95-1.17.98-2.67,1.48-4.19,1.4-.96.02-1.91-.16-2.79-.51-.78-.31-1.48-.8-2.04-1.43-.57-.65-.98-1.42-1.23-2.25-.28-.92-.42-1.87-.41-2.83,0-.98.13-1.96.41-2.89.26-.85.67-1.65,1.23-2.35.55-.68,1.25-1.21,2.04-1.57.9-.4,1.88-.59,2.86-.58.75,0,1.49.09,2.21.27.65.16,1.26.45,1.81.85.52.4.96.9,1.29,1.46.36.65.58,1.37.65,2.11h-2.42c-.14-.76-.52-1.45-1.09-1.98"></path><path id="Path_275179" data-name="Path 275179" class="cls-1" d="m439.1,17.5v7.29h.07c.17-.41.42-.79.75-1.09.31-.31.68-.55,1.09-.72.79-.35,1.65-.54,2.52-.55.78-.02,1.55.11,2.28.38.57.22,1.07.59,1.46,1.05.39.47.66,1.02.78,1.61.15.67.23,1.36.23,2.04v9.09h-2.28v-9.37c.12-1.42-.94-2.68-2.37-2.79-.14-.01-.29-.01-.43,0-.62-.01-1.23.09-1.81.31-.49.19-.92.51-1.26.92-.33.4-.59.86-.75,1.36-.18.56-.28,1.15-.27,1.74v7.79h-2.28v-19.06h2.26Z"></path><path id="Path_275180" data-name="Path 275180" class="cls-1" d="m212.9,27.04c-.01,2.68.76,5.3,2.2,7.55l4.13-7.69-4.09-7.48c-1.46,2.28-2.23,4.92-2.24,7.62"></path><path id="Path_275181" data-name="Path 275181" class="cls-1" d="m226.99,12.95c-2.75-.01-5.44.79-7.73,2.3l6.4,11.61-6.4,11.93c2.29,1.52,4.98,2.32,7.73,2.3,7.77.1,14.15-6.12,14.25-13.89s-6.12-14.15-13.89-14.25c-.12,0-.24,0-.36,0m1.84,25.84h-6.39l6.4-11.89-6.4-11.64h6.4l6.4,11.61-6.41,11.92Z"></path><path id="Path_275182" data-name="Path 275182" class="cls-1" d="m228.81,7.08v2.27c9.75,1,16.85,9.71,15.85,19.46-.86,8.37-7.48,15-15.85,15.85v2.27c11.01-.99,19.13-10.72,18.14-21.73-.87-9.63-8.5-17.27-18.14-18.14"></path><path id="Path_275183" data-name="Path 275183" class="cls-1" d="m225.14,44.7c-9.76-1-16.86-9.73-15.86-19.49.86-8.38,7.48-15,15.86-15.86v-2.27c-11.03,1.01-19.15,10.76-18.14,21.79.88,9.63,8.51,17.27,18.14,18.14v-2.31Z"></path></g></g><g><g><path class="cls-1" d="m1023.35,36.56h-14.6v-19.77h14.4v2.37h-11.73v6.06h10.82v2.37h-10.82v6.61h11.92v2.37Z"></path><path class="cls-1" d="m1039.1,16.79h3l-7.22,19.77h-2.84l-7.22-19.77h2.97l5.65,16.85h.06l5.59-16.85Z"></path><path class="cls-1" d="m1051.4,16.79h8.7c3.69,0,5.59,2.29,5.59,4.98,0,1.29-.47,3.11-2.64,4.13,1.29.52,3.58,1.43,3.58,4.82,0,3.17-2.34,5.84-6.72,5.84h-8.51v-19.77Zm2.67,8.37h4.82c2.56,0,4.13-.77,4.13-3.19,0-1.85-1.13-2.89-4.1-2.89h-4.85v6.09Zm0,9.12h5.7c2.78,0,4.19-1.4,4.19-3.61,0-2.78-2.45-3.33-4.63-3.33h-5.26v6.94Z"></path><path class="cls-1" d="m1068.97,26.54c.11-3.44,2.4-4.79,5.95-4.79,1.16,0,5.34.33,5.34,4.02v8.29c0,.61.3.85.8.85.22,0,.52-.06.8-.11v1.76c-.41.11-.77.28-1.32.28-2.15,0-2.48-1.1-2.56-2.2-.94,1.02-2.4,2.34-5.2,2.34-2.64,0-4.52-1.68-4.52-4.16,0-1.21.36-4.02,4.38-4.52l3.99-.5c.58-.06,1.27-.28,1.27-1.71,0-1.51-1.1-2.34-3.39-2.34-2.75,0-3.14,1.68-3.3,2.78h-2.23Zm8.87,2.67c-.39.3-.99.52-3.99.91-1.18.17-3.08.52-3.08,2.34,0,1.57.8,2.51,2.62,2.51,2.26,0,4.46-1.46,4.46-3.39v-2.37Z"></path><path class="cls-1" d="m1085.77,24.17v9.36c0,1.13.96,1.13,1.46,1.13h.85v1.9c-.88.08-1.57.19-1.82.19-2.4,0-2.92-1.35-2.92-3.08v-9.5h-1.96v-2.01h1.96v-4.02h2.42v4.02h2.31v2.01h-2.31Z"></path><path class="cls-1" d="m1092.96,24.17v9.36c0,1.13.96,1.13,1.46,1.13h.85v1.9c-.88.08-1.57.19-1.82.19-2.4,0-2.92-1.35-2.92-3.08v-9.5h-1.96v-2.01h1.96v-4.02h2.42v4.02h2.31v2.01h-2.31Z"></path><path class="cls-1" d="m1108.85,32.04c-.08.69-.74,2.73-2.56,3.94-.66.44-1.6.99-3.91.99-4.05,0-6.44-3.06-6.44-7.22,0-4.46,2.15-8.01,6.91-8.01,4.16,0,6.2,3.3,6.2,8.4h-10.52c0,3,1.4,4.74,4.19,4.74,2.29,0,3.64-1.76,3.72-2.84h2.42Zm-2.31-3.83c-.14-2.23-1.07-4.3-4.02-4.3-2.23,0-3.99,2.07-3.99,4.3h8.01Z"></path><path class="cls-1" d="m1114.22,36.56h-2.42v-14.4h2.29v2.4h.06c.96-1.68,2.23-2.81,4.05-2.81.3,0,.44.03.63.08v2.51h-.91c-2.26,0-3.69,1.76-3.69,3.86v8.37Z"></path><path class="cls-1" d="m1130,22.16h2.67c-1.68,4.71-3.33,9.42-5.18,14.13-2.29,5.84-2.53,6.17-5.65,6.17-.36,0-.63-.11-1.02-.22v-2.2c.3.11.8.25,1.46.25,1.27,0,1.4-.36,2.56-3.33l-5.34-14.79h2.75l3.83,11.73h.06l3.86-11.73Z"></path><path class="cls-1" d="m1153.71,22.57c-.14-3.06-2.67-4.02-4.9-4.02-1.68,0-4.52.47-4.52,3.47,0,1.68,1.18,2.23,2.34,2.51l5.65,1.29c2.56.61,4.49,2.15,4.49,5.29,0,4.68-4.35,5.98-7.74,5.98-3.66,0-5.09-1.1-5.98-1.9-1.68-1.51-2.01-3.17-2.01-5.01h2.51c0,3.58,2.92,4.63,5.45,4.63,1.93,0,5.18-.5,5.18-3.33,0-2.07-.96-2.73-4.21-3.5l-4.05-.94c-1.29-.3-4.21-1.21-4.21-4.65,0-3.08,2.01-6.11,6.8-6.11,6.91,0,7.6,4.13,7.71,6.31h-2.51Z"></path><path class="cls-1" d="m1165.24,21.74c4.6,0,6.69,3.88,6.69,7.6s-2.09,7.6-6.69,7.6-6.69-3.88-6.69-7.6,2.09-7.6,6.69-7.6Zm0,13.11c3.47,0,4.19-3.58,4.19-5.51s-.72-5.51-4.19-5.51-4.19,3.58-4.19,5.51.72,5.51,4.19,5.51Z"></path><path class="cls-1" d="m1176.7,36.56h-2.42v-19.77h2.42v19.77Z"></path><path class="cls-1" d="m1189.26,36.56v-2.09l-.06-.06c-1.02,1.68-2.26,2.56-4.57,2.56-2.12,0-4.68-1.02-4.68-4.46v-10.35h2.42v9.56c0,2.37,1.21,3.17,2.78,3.17,3.06,0,3.97-2.7,3.97-4.79v-7.93h2.42v14.4h-2.29Z"></path><path class="cls-1" d="m1197.68,24.17v9.36c0,1.13.96,1.13,1.46,1.13h.85v1.9c-.88.08-1.57.19-1.82.19-2.4,0-2.92-1.35-2.92-3.08v-9.5h-1.96v-2.01h1.96v-4.02h2.42v4.02h2.31v2.01h-2.31Z"></path><path class="cls-1" d="m1201.95,19.54v-2.75h2.42v2.75h-2.42Zm2.42,17.02h-2.42v-14.4h2.42v14.4Z"></path><path class="cls-1" d="m1213.4,21.74c4.6,0,6.69,3.88,6.69,7.6s-2.09,7.6-6.69,7.6-6.69-3.88-6.69-7.6,2.09-7.6,6.69-7.6Zm0,13.11c3.47,0,4.19-3.58,4.19-5.51s-.72-5.51-4.19-5.51-4.19,3.58-4.19,5.51.72,5.51,4.19,5.51Z"></path><path class="cls-1" d="m1234.11,36.56h-2.42v-8.87c0-2.51-.72-3.77-3.08-3.77-1.38,0-3.8.88-3.8,4.79v7.85h-2.42v-14.4h2.29v2.04h.06c.52-.77,1.87-2.45,4.35-2.45,2.23,0,5.04.91,5.04,5.01v9.8Z"></path><path class="cls-1" d="m1245.4,26.26c-.03-.91-.36-2.42-3.41-2.42-.74,0-2.86.25-2.86,2.04,0,1.18.74,1.46,2.62,1.93l2.42.61c3,.74,4.05,1.85,4.05,3.8,0,2.97-2.45,4.76-5.7,4.76-5.7,0-6.11-3.3-6.2-5.04h2.34c.08,1.13.41,2.95,3.83,2.95,1.73,0,3.3-.69,3.3-2.29,0-1.16-.8-1.54-2.86-2.07l-2.81-.69c-2.01-.5-3.33-1.51-3.33-3.5,0-3.17,2.62-4.6,5.45-4.6,5.15,0,5.51,3.8,5.51,4.52h-2.34Z"></path></g><g><path class="cls-1" d="m990.3,12.47c-7.8-7.8-20.44-7.8-28.24,0-7.8,7.8-7.8,20.44,0,28.24,7.8,7.8,20.44,7.8,28.24,0,7.8-7.8,7.8-20.44,0-28.24Zm-1.04,15.88c0,.28-.23.5-.5.5h-1.05v3.41c0,1.79-1.45,3.24-3.24,3.24h-17.02c-1.79,0-3.24-1.45-3.24-3.24v-11.35c0-1.79,1.45-3.24,3.24-3.24h17.02c1.79,0,3.24,1.45,3.24,3.24v3.17h1.05c.28,0,.5.23.5.5v3.77Z"></path><path class="cls-1" d="m984.47,19h-17.02c-1.05,0-1.9.86-1.9,1.9v11.35c0,1.05.86,1.9,1.9,1.9h17.02c1.05,0,1.9-.86,1.9-1.9v-11.35c0-1.05-.86-1.9-1.9-1.9Zm-16.29,13.96c-.82,0-1.48-.67-1.48-1.48v-9.82c0-.82.67-1.48,1.48-1.48h8.52l-6.1,6.22h5.25l-4.21,6.56h-3.46Zm17.05-1.48c0,.82-.67,1.48-1.48,1.48h-11.35l6.71-7.78h-3.85l5.99-5h2.5c.82,0,1.48.67,1.48,1.48v9.82Z"></path></g></g><g><path class="cls-1" d="m1325.18,12.47c-7.8-7.8-20.44-7.8-28.24,0-7.8,7.8-7.8,20.44,0,28.24,7.8,7.8,20.44,7.8,28.24,0,7.8-7.8,7.8-20.44,0-28.24Zm-10.99,27.29h-13.58l.93-3.69h13.68l-1.03,3.69Zm6.4-22.65h-9.43l-1.26,4.98h7.07l-.93,3.69h-7.07l-2.02,7.97h-4.82l5.14-20.33h14.24l-.93,3.69Z"></path><g><path class="cls-1" d="m1345.98,36.43h-2.67v-19.75h13.67v2.37h-11v6.05h9.68v2.37h-9.68v8.97Z"></path><path class="cls-1" d="m1361.96,36.43h-2.42v-19.75h2.42v19.75Z"></path><path class="cls-1" d="m1377.75,31.92c-.08.69-.74,2.72-2.56,3.93-.66.44-1.6.99-3.91.99-4.04,0-6.44-3.05-6.44-7.21,0-4.46,2.15-8,6.9-8,4.15,0,6.19,3.3,6.19,8.39h-10.51c0,3,1.4,4.73,4.18,4.73,2.28,0,3.63-1.76,3.71-2.83h2.42Zm-2.31-3.82c-.14-2.23-1.07-4.29-4.02-4.29-2.23,0-3.99,2.06-3.99,4.29h8Z"></path><path class="cls-1" d="m1393.54,31.92c-.08.69-.74,2.72-2.56,3.93-.66.44-1.6.99-3.91.99-4.04,0-6.44-3.05-6.44-7.21,0-4.46,2.15-8,6.9-8,4.15,0,6.19,3.3,6.19,8.39h-10.51c0,3,1.4,4.73,4.18,4.73,2.28,0,3.63-1.76,3.71-2.83h2.42Zm-2.31-3.82c-.14-2.23-1.07-4.29-4.02-4.29-2.23,0-3.99,2.06-3.99,4.29h8Z"></path><path class="cls-1" d="m1400.09,24.05v9.35c0,1.13.96,1.13,1.46,1.13h.85v1.9c-.88.08-1.57.19-1.82.19-2.39,0-2.92-1.35-2.92-3.08v-9.49h-1.95v-2.01h1.95v-4.02h2.42v4.02h2.31v2.01h-2.31Z"></path><path class="cls-1" d="m1418.66,16.68h2.59v19.75h-3l-10.04-15.95h-.06v15.95h-2.59v-19.75h3.16l9.88,15.95h.06v-15.95Z"></path><path class="cls-1" d="m1436.73,31.92c-.08.69-.74,2.72-2.56,3.93-.66.44-1.6.99-3.91.99-4.04,0-6.44-3.05-6.44-7.21,0-4.46,2.15-8,6.9-8,4.15,0,6.19,3.3,6.19,8.39h-10.51c0,3,1.4,4.73,4.18,4.73,2.28,0,3.63-1.76,3.71-2.83h2.42Zm-2.31-3.82c-.14-2.23-1.07-4.29-4.02-4.29-2.23,0-3.99,2.06-3.99,4.29h8Z"></path><path class="cls-1" d="m1443.28,24.05v9.35c0,1.13.96,1.13,1.46,1.13h.85v1.9c-.88.08-1.57.19-1.82.19-2.39,0-2.92-1.35-2.92-3.08v-9.49h-1.95v-2.01h1.95v-4.02h2.42v4.02h2.31v2.01h-2.31Z"></path><path class="cls-1" d="m1458.63,30.68l-2.06,5.75h-2.75l7.43-19.75h3.03l7.15,19.75h-2.92l-1.95-5.75h-7.92Zm6.96-2.37l-2.92-8.69h-.06l-3.16,8.69h6.13Z"></path><path class="cls-1" d="m1473.51,22.04h2.28v2.04h.06c.52-.77,1.76-2.45,4.35-2.45s3.41,1.57,3.82,2.34c1.21-1.35,2.17-2.34,4.4-2.34,1.54,0,4.46.8,4.46,4.84v9.96h-2.42v-9.3c0-1.98-.61-3.33-2.67-3.33s-3.38,1.93-3.38,3.85v8.77h-2.42v-9.96c0-1.21-.47-2.67-2.26-2.67-1.38,0-3.8.88-3.8,4.79v7.84h-2.42v-14.39Z"></path><path class="cls-1" d="m1508.04,31.92c-.08.69-.74,2.72-2.56,3.93-.66.44-1.6.99-3.91.99-4.04,0-6.44-3.05-6.44-7.21,0-4.46,2.15-8,6.9-8,4.15,0,6.19,3.3,6.19,8.39h-10.51c0,3,1.4,4.73,4.18,4.73,2.28,0,3.63-1.76,3.71-2.83h2.42Zm-2.31-3.82c-.14-2.23-1.07-4.29-4.02-4.29-2.23,0-3.99,2.06-3.99,4.29h8Z"></path><path class="cls-1" d="m1514.36,36.43h-2.42v-14.39h2.28v2.39h.06c.96-1.68,2.23-2.81,4.04-2.81.3,0,.44.03.63.08v2.5h-.91c-2.26,0-3.69,1.76-3.69,3.85v8.36Z"></path><path class="cls-1" d="m1521.74,19.43v-2.75h2.42v2.75h-2.42Zm2.42,17h-2.42v-14.39h2.42v14.39Z"></path><path class="cls-1" d="m1536.73,26.88c-.3-1.93-1.38-3.08-3.41-3.08-3,0-3.96,2.86-3.96,5.42s.61,5.53,3.93,5.53c1.62,0,3.03-1.21,3.44-3.41h2.34c-.25,2.28-1.65,5.5-5.86,5.5s-6.44-3.05-6.44-7.21c0-4.46,2.15-8,6.9-8,3.77,0,5.2,2.75,5.39,5.25h-2.34Z"></path><path class="cls-1" d="m1541.9,26.41c.11-3.44,2.39-4.79,5.94-4.79,1.16,0,5.34.33,5.34,4.02v8.28c0,.61.3.85.8.85.22,0,.52-.06.8-.11v1.76c-.41.11-.77.28-1.32.28-2.15,0-2.48-1.1-2.56-2.2-.94,1.02-2.39,2.34-5.2,2.34-2.64,0-4.51-1.68-4.51-4.15,0-1.21.36-4.02,4.37-4.51l3.99-.5c.58-.06,1.27-.28,1.27-1.71,0-1.51-1.1-2.34-3.38-2.34-2.75,0-3.14,1.68-3.3,2.78h-2.23Zm8.86,2.67c-.39.3-.99.52-3.99.91-1.18.17-3.08.52-3.08,2.34,0,1.57.8,2.5,2.61,2.5,2.26,0,4.46-1.46,4.46-3.38v-2.37Z"></path></g></g></g><g id="Group_278" data-name="Group 278"><g id="xTime_without_CAI_BLACK" data-name="xTime without CAI BLACK"><g id="Group_251" data-name="Group 251"><g id="Group_250" data-name="Group 250"><path id="Path_781" data-name="Path 781" class="cls-1" d="m3139.83,21.39h3.24l3.68,5.38,3.83-5.38h3.03l-5.3,7.07,5.94,8.29h-3.24l-4.28-6.36-4.27,6.36h-3.06l5.76-8.08-5.35-7.28h.01Z"></path><path id="Path_782" data-name="Path 782" class="cls-1" d="m3162.99,21.4v2.23h-3.06v9.54c0,.24.02.48.08.71.04.17.14.31.28.42.17.11.37.18.58.19.32.03.64.05.97.04h1.15v2.23h-1.93c-.56,0-1.12-.04-1.68-.13-.41-.06-.8-.23-1.13-.49-.31-.27-.53-.62-.64-1.01-.15-.56-.22-1.14-.21-1.72v-9.77h-2.61v-2.23h2.62v-4.61h2.53v4.61h3.06-.01Z"></path><path id="Path_783" data-name="Path 783" class="cls-1" d="m3165.93,18.63v-3.09h2.53v3.09h-2.53Zm2.53,2.76v15.36h-2.53v-15.36h2.53Z"></path><path id="Path_784" data-name="Path 784" class="cls-1" d="m3174.76,21.39v2.26h.06c1.67-2.45,4.88-3.3,7.54-2.02.8.42,1.39,1.15,1.63,2.02.49-.81,1.2-1.48,2.03-1.93.85-.46,1.81-.7,2.78-.69.71,0,1.42.08,2.1.26.59.15,1.14.42,1.61.79.45.37.81.84,1.04,1.38.26.64.39,1.34.37,2.03v11.26h-2.53v-10.07c0-.45-.04-.9-.12-1.34-.07-.39-.22-.76-.44-1.08-.23-.32-.54-.57-.9-.73-.48-.2-.99-.29-1.5-.27-1.08-.06-2.15.33-2.94,1.07-.73.76-1.12,1.8-1.07,2.85v9.57h-2.53v-10.07c0-.46-.04-.92-.13-1.37-.08-.39-.23-.76-.46-1.08-.22-.31-.53-.56-.88-.71-.45-.18-.93-.27-1.41-.25-.66-.02-1.31.13-1.89.44-.49.27-.93.63-1.28,1.07-.31.39-.55.82-.71,1.29-.13.36-.21.73-.23,1.11v9.57h-2.53v-15.36h2.39Z"></path><path id="Path_785" data-name="Path 785" class="cls-1" d="m3208.59,35.77c-1.26.91-2.79,1.37-4.34,1.31-1.1.03-2.18-.17-3.2-.59-.87-.38-1.65-.94-2.27-1.66-.63-.75-1.1-1.62-1.38-2.55-.32-1.05-.49-2.14-.52-3.24-.01-1.09.17-2.18.53-3.21.33-.93.84-1.79,1.5-2.53.64-.71,1.42-1.28,2.29-1.66.91-.4,1.9-.61,2.9-.6,1.19-.05,2.37.25,3.4.85.88.54,1.62,1.28,2.17,2.16.55.87.93,1.84,1.13,2.85.2.97.29,1.95.25,2.94h-11.49c-.03.65.05,1.3.23,1.92.17.59.46,1.14.86,1.61.42.48.93.86,1.52,1.11.68.29,1.42.43,2.17.42.93.04,1.85-.22,2.63-.74.72-.55,1.2-1.36,1.35-2.26h2.5c-.23,1.53-1.02,2.92-2.23,3.89h0Zm-.61-9.86c-.21-.52-.53-.99-.92-1.38-.39-.39-.86-.7-1.37-.92-.55-.23-1.14-.35-1.74-.34-.61,0-1.21.11-1.77.34-.51.22-.97.54-1.35.94-.38.4-.68.87-.89,1.38-.22.53-.35,1.1-.38,1.68h8.82c-.04-.58-.17-1.16-.4-1.69h0Z"></path></g></g><path id="Path_786" data-name="Path 786" class="cls-1" d="m3107.39,6.69c-11,0-19.91,8.92-19.91,19.91s8.92,19.91,19.91,19.91,19.91-8.92,19.91-19.91h0c0-11-8.92-19.91-19.91-19.91Zm14.03,22.13c.08,1.14-.46,2.23-1.42,2.85-.26.2-.57.33-.89.38-.38-.05-.75-.18-1.08-.37-.18-.11-.34-.19-.35-.27s.15-.1.46-.2c1-.34,1.71-1.25,1.8-2.3v-4.48c-.05-1.28-1.13-2.27-2.41-2.22-.04,0-.08,0-.12,0h-2.97c-.93-.11-1.86.17-2.57.79l-2.53,2.65,4.33,4.01c1.01,1.02,2.21,1.85,3.53,2.43.26.13.51.13.51.26s-.18.12-.69.12h-4.41c-1.16.01-2.28-.4-3.16-1.15l-2.92-2.73-2.41,2.59c-1.05,1-2.49,1.48-3.93,1.29h-2.86c-2.05.13-3.82-1.43-3.95-3.49,0-.05,0-.1,0-.15v-4.44c-.08-1.14.46-2.23,1.41-2.85.26-.2.57-.33.89-.38.38.05.75.17,1.08.37.18.11.34.19.34.27s-.15.1-.46.2c-1.01.34-1.72,1.24-1.81,2.3v4.47c.06,1.28,1.14,2.28,2.42,2.22.04,0,.07,0,.11,0h2.98c.93.11,1.86-.18,2.57-.79l2.51-2.63-4.34-4.03c-1.01-1.02-2.21-1.85-3.53-2.43-.26-.13-.51-.14-.51-.26s.18-.11.69-.11h4.41c1.16-.01,2.28.4,3.16,1.15l2.94,2.73,2.42-2.58c1.05-1,2.5-1.48,3.94-1.29h2.85c2.05-.13,3.82,1.43,3.94,3.48,0,.05,0,.11,0,.16v4.44h0Z"></path></g><g id="VinSolutions_without_CAI_BLACK" data-name="VinSolutions without CAI BLACK"><g id="Group_254" data-name="Group 254"><g id="Group_252" data-name="Group 252"><path id="Path_787" data-name="Path 787" class="cls-1" d="m2897.27,36.74l-7.03-20h2.86l5.71,17.34h.06l5.77-17.34h2.76l-7.11,20h-3.02Z"></path></g><g id="Group_253" data-name="Group 253"><path id="Path_788" data-name="Path 788" class="cls-1" d="m2908.78,19.65v-2.91h2.38v2.91h-2.38Zm2.38,2.6v14.48h-2.38v-14.48h2.38Z"></path><path id="Path_789" data-name="Path 789" class="cls-1" d="m2917.09,22.25v2.3h.06c.92-1.72,2.76-2.74,4.7-2.63.81-.02,1.62.11,2.38.39.59.23,1.12.61,1.54,1.09.4.48.68,1.05.83,1.66.16.7.24,1.42.23,2.14v9.51h-2.37v-9.8c.04-.79-.24-1.56-.79-2.13-.58-.55-1.36-.83-2.16-.79-.65-.02-1.29.1-1.89.34-.51.21-.97.54-1.33.95-.36.42-.63.91-.8,1.44-.18.58-.27,1.19-.26,1.81v8.17h-2.37v-14.47h2.24,0Z"></path><path id="Path_790" data-name="Path 790" class="cls-1" d="m2940.84,19.47c-1-.68-2.19-1.02-3.4-.97-.55,0-1.11.06-1.65.17-.51.1-1,.29-1.44.56-.42.26-.77.62-1.01,1.05-.27.5-.4,1.07-.38,1.64-.02.55.17,1.09.55,1.5.41.41.91.73,1.46.94.67.26,1.36.46,2.06.6.77.15,1.55.33,2.34.52.79.19,1.57.41,2.34.66.73.24,1.43.58,2.06,1.02.6.42,1.1.98,1.46,1.62.79,1.66.72,3.59-.17,5.2-.47.74-1.1,1.37-1.84,1.84-.77.49-1.62.84-2.51,1.04-.91.21-1.83.32-2.76.32-1.07,0-2.14-.13-3.18-.42-.95-.26-1.84-.69-2.63-1.27-.76-.58-1.38-1.33-1.79-2.19-.46-.98-.68-2.06-.65-3.15h2.53c-.02.75.15,1.5.49,2.17.31.59.75,1.1,1.29,1.5.56.41,1.19.7,1.86.87.71.19,1.45.28,2.19.28.61,0,1.21-.06,1.81-.17.57-.1,1.13-.3,1.64-.58,1.06-.56,1.7-1.7,1.62-2.9.03-.61-.17-1.2-.55-1.68-.4-.46-.9-.82-1.46-1.05-.66-.29-1.35-.51-2.06-.66-.77-.17-1.55-.34-2.34-.52s-1.57-.38-2.34-.62c-.72-.21-1.42-.52-2.06-.92-.6-.37-1.09-.88-1.46-1.48-.39-.7-.58-1.49-.55-2.28-.02-.91.19-1.81.62-2.62.4-.73.96-1.35,1.64-1.82.71-.49,1.49-.85,2.33-1.06.87-.23,1.77-.35,2.67-.35.96,0,1.93.11,2.86.36.84.23,1.62.62,2.3,1.15.67.53,1.2,1.21,1.57,1.98.41.89.62,1.86.63,2.84h-2.53c-.04-1.22-.61-2.36-1.56-3.12h.01Z"></path><path id="Path_791" data-name="Path 791" class="cls-1" d="m2948.25,26.53c.28-.89.74-1.71,1.34-2.41.61-.69,1.37-1.24,2.21-1.61,1.95-.78,4.12-.78,6.07,0,.84.37,1.59.92,2.2,1.61.61.7,1.07,1.52,1.34,2.41.31.97.46,1.98.45,2.99,0,1.01-.14,2.01-.45,2.97-.28.88-.74,1.7-1.34,2.39-.61.69-1.36,1.23-2.2,1.6-1.95.77-4.12.77-6.07,0-.85-.36-1.6-.91-2.21-1.6-.61-.7-1.06-1.51-1.34-2.39-.31-.96-.46-1.96-.45-2.97,0-1.02.14-2.03.45-2.99Zm2.42,5.32c.2.63.53,1.21.97,1.71.4.45.89.81,1.44,1.05,1.12.49,2.39.49,3.5,0,.55-.24,1.04-.6,1.44-1.05.43-.5.76-1.08.97-1.71.47-1.53.47-3.16,0-4.68-.21-.63-.53-1.22-.97-1.72-.4-.46-.89-.82-1.44-1.06-.55-.24-1.15-.37-1.75-.36-.6,0-1.2.12-1.75.36-.55.25-1.04.61-1.44,1.06-.43.51-.76,1.09-.97,1.72-.47,1.53-.47,3.16,0,4.68h0Z"></path><path id="Path_792" data-name="Path 792" class="cls-1" d="m2967.18,16.74v20h-2.38v-20h2.38Z"></path><path id="Path_793" data-name="Path 793" class="cls-1" d="m2980.63,36.74v-2.3h-.06c-.44.83-1.11,1.52-1.93,1.98-.85.44-1.8.65-2.76.63-.81.02-1.62-.1-2.38-.38-.6-.22-1.13-.59-1.54-1.08-.4-.48-.68-1.05-.83-1.66-.16-.7-.24-1.42-.23-2.14v-9.52h2.38v9.8c-.04.79.24,1.56.79,2.13.58.55,1.36.83,2.16.79.65.02,1.29-.1,1.89-.34.51-.21.97-.54,1.33-.95.36-.42.63-.91.8-1.44.18-.59.27-1.19.26-1.81v-8.18h2.38v14.48h-2.26Z"></path><path id="Path_794" data-name="Path 794" class="cls-1" d="m2992.65,22.26v2.1h-2.89v8.99c0,.23.02.45.07.67.04.16.13.3.26.39.16.11.35.17.55.18.31.03.61.05.92.04h1.09v2.11h-1.82c-.53,0-1.06-.03-1.58-.13-.39-.06-.75-.22-1.06-.46-.29-.25-.5-.58-.6-.95-.15-.53-.21-1.08-.2-1.62v-9.21h-2.46v-2.1h2.46v-4.36h2.37v4.34h2.89Z"></path><path id="Path_795" data-name="Path 795" class="cls-1" d="m2995.42,19.65v-2.91h2.38v2.91h-2.38Zm2.38,2.6v14.48h-2.38v-14.48h2.38Z"></path><path id="Path_796" data-name="Path 796" class="cls-1" d="m3001.15,26.53c.28-.89.74-1.71,1.34-2.41.61-.69,1.37-1.24,2.21-1.61,1.95-.78,4.12-.78,6.07,0,.84.37,1.59.92,2.2,1.61.61.7,1.07,1.52,1.34,2.41.31.97.46,1.98.45,2.99,0,1.01-.14,2.01-.45,2.97-.28.88-.74,1.7-1.34,2.39-.61.69-1.36,1.23-2.2,1.6-1.95.77-4.12.77-6.07,0-.85-.36-1.6-.91-2.21-1.6-.61-.7-1.06-1.51-1.34-2.39-.31-.96-.46-1.96-.45-2.97,0-1.02.14-2.03.45-2.99Zm2.42,5.32c.2.63.53,1.21.97,1.71.4.45.89.81,1.44,1.05,1.12.49,2.39.49,3.5,0,.55-.24,1.04-.6,1.44-1.05.43-.5.76-1.08.97-1.71.47-1.53.47-3.16,0-4.68-.21-.63-.53-1.22-.97-1.72-.4-.46-.89-.82-1.44-1.06-.55-.24-1.15-.37-1.75-.36-.6,0-1.2.12-1.75.36-.55.25-1.04.61-1.44,1.06-.43.51-.76,1.09-.97,1.72-.47,1.53-.47,3.16,0,4.68h0Z"></path><path id="Path_797" data-name="Path 797" class="cls-1" d="m3019.82,22.25v2.3h.06c.92-1.72,2.76-2.74,4.7-2.63.81-.02,1.62.11,2.38.39.59.23,1.12.61,1.54,1.09.4.48.68,1.05.83,1.66.16.7.24,1.42.23,2.14v9.51h-2.38v-9.8c.04-.79-.24-1.56-.79-2.13-.58-.55-1.36-.83-2.16-.79-.65-.02-1.29.1-1.89.34-.51.21-.97.54-1.33.95-.36.42-.63.91-.8,1.44-.18.58-.27,1.19-.26,1.81v8.17h-2.37v-14.47h2.24Z"></path><path id="Path_798" data-name="Path 798" class="cls-1" d="m3034.97,33.5c.22.36.52.66.88.87.38.22.8.38,1.23.46.47.09.94.14,1.41.14.39,0,.79-.03,1.18-.08.39-.05.77-.16,1.14-.31.34-.14.63-.37.85-.66.24-.32.36-.71.34-1.11.03-.56-.23-1.09-.69-1.4-.54-.35-1.13-.61-1.75-.77-.69-.2-1.46-.37-2.28-.53-.78-.15-1.55-.37-2.28-.67-.67-.27-1.27-.68-1.75-1.22-.5-.62-.74-1.4-.69-2.19-.02-.66.15-1.31.49-1.88.32-.51.75-.95,1.26-1.27.54-.34,1.12-.58,1.74-.73.63-.15,1.27-.23,1.92-.23.76,0,1.52.06,2.27.21.66.12,1.28.37,1.84.73.54.35.98.83,1.27,1.4.34.68.53,1.43.56,2.2h-2.38c-.03-.79-.46-1.51-1.15-1.91-.33-.19-.68-.33-1.05-.41-.38-.08-.77-.13-1.16-.13-.36,0-.72.03-1.08.08-.34.05-.68.15-.99.29-.28.13-.53.32-.73.56-.2.27-.3.59-.28.92-.01.39.15.76.43,1.02.32.29.7.52,1.11.67.49.19,1,.34,1.51.45.56.12,1.12.25,1.68.38.6.13,1.18.29,1.75.47.54.17,1.05.42,1.52.74.44.3.8.7,1.06,1.16.29.53.43,1.13.41,1.74.03.77-.16,1.52-.55,2.19-.36.57-.85,1.05-1.43,1.4-.61.36-1.29.62-1.99.74-.72.14-1.46.21-2.2.21-.77,0-1.55-.08-2.3-.25-.69-.15-1.35-.43-1.93-.83-.56-.39-1.03-.91-1.34-1.52-.36-.71-.55-1.49-.56-2.28h2.38c0,.47.13.93.36,1.33h-.01Z"></path></g></g><path id="Path_799" data-name="Path 799" class="cls-1" d="m2858.09,6.69c-11.02,0-19.96,8.94-19.96,19.96s8.94,19.96,19.96,19.96,19.96-8.94,19.96-19.96-8.94-19.96-19.96-19.96h0Zm0,6.36c1.9-.01,3.44,1.52,3.45,3.41,0,.01,0,.03,0,.04,0,1.91-1.54,3.47-3.45,3.49-1.9-.06-3.42-1.59-3.45-3.49.03-1.9,1.56-3.43,3.45-3.45Zm6.85,10.99h0c-1.38,5.18-3.17,10.25-5.34,15.15-.32.83-1.25,1.24-2.08.92-.42-.16-.76-.5-.92-.92-2.17-4.91-3.95-9.97-5.34-15.15-.29-.95.25-1.95,1.19-2.24.14-.04.28-.07.42-.07h10.47c.99.06,1.75.91,1.69,1.9,0,.14-.03.28-.07.42h-.02Z"></path></g><g id="vAuto_without_CAI_WHITE" data-name="vAuto without CAI WHITE"><g id="Group_247" data-name="Group 247"><g id="Group_246" data-name="Group 246"><path id="Path_763" data-name="Path 763" class="cls-1" d="m2723.29,37.34l-5.78-15.55h2.86l4.36,12.96h.06l4.24-12.96h2.68l-5.69,15.55h-2.73Z"></path><path id="Path_764" data-name="Path 764" class="cls-1" d="m2743.46,15.87l8.39,21.47h-3.16l-2.34-6.46h-9.08l-2.41,6.46h-2.92l8.36-21.47h3.15Zm1.98,12.6l-3.58-10.01h-.06l-3.65,10.01h7.28Z"></path><path id="Path_765" data-name="Path 765" class="cls-1" d="m2764,37.34v-2.47h-.06c-.47.89-1.19,1.63-2.07,2.12-.92.47-1.94.7-2.98.67-.87.02-1.74-.12-2.56-.41-.64-.24-1.21-.63-1.65-1.15-.43-.52-.73-1.13-.89-1.79-.18-.75-.26-1.53-.26-2.3v-10.22h2.55v10.53c-.04.84.26,1.67.84,2.28.62.59,1.46.89,2.31.84.69.02,1.38-.11,2.03-.36.55-.22,1.04-.57,1.43-1.02.39-.45.68-.98.86-1.55.2-.63.29-1.28.28-1.94v-8.78h2.55v15.55h-2.41,0Z"></path><path id="Path_766" data-name="Path 766" class="cls-1" d="m2776.9,21.79v2.26h-3.1v9.65c0,.24.02.49.07.72.04.17.14.32.28.42.18.11.38.18.59.2.33.03.65.05.98.04h1.17v2.26h-1.95c-.57,0-1.14-.04-1.7-.14-.42-.07-.82-.24-1.15-.5-.31-.27-.54-.63-.65-1.02-.16-.57-.23-1.15-.21-1.74v-9.9h-2.64v-2.26h2.65v-4.65h2.55v4.66h3.1Z"></path><path id="Path_767" data-name="Path 767" class="cls-1" d="m2779.37,26.38c.3-.95.79-1.83,1.44-2.59.66-.74,1.47-1.33,2.38-1.73,2.09-.84,4.42-.84,6.51,0,.9.4,1.71.99,2.36,1.73.65.75,1.15,1.64,1.44,2.59.64,2.08.64,4.3,0,6.39-.3.95-.79,1.82-1.44,2.57-.65.74-1.46,1.32-2.36,1.71-2.09.82-4.42.82-6.51,0-.91-.39-1.72-.97-2.38-1.71-.65-.75-1.14-1.62-1.44-2.57-.33-1.03-.49-2.11-.48-3.19,0-1.08.15-2.16.48-3.2Zm2.6,5.72c.22.68.57,1.3,1.04,1.84.43.48.96.87,1.55,1.13.59.26,1.23.39,1.88.39,1.31,0,2.56-.54,3.43-1.52.47-.54.82-1.16,1.04-1.84.5-1.64.5-3.38,0-5.02-.22-.68-.58-1.3-1.04-1.84-.43-.49-.95-.89-1.55-1.15-1.2-.52-2.56-.52-3.76,0-.59.27-1.12.66-1.55,1.15-.46.54-.82,1.17-1.04,1.84-.5,1.64-.5,3.38,0,5.02h0Z"></path></g></g><path id="Path_768" data-name="Path 768" class="cls-1" d="m2689.15,6.69c-11.02,0-19.96,8.94-19.96,19.96s8.94,19.96,19.96,19.96,19.96-8.94,19.96-19.96c0-11.02-8.93-19.96-19.95-19.96,0,0,0,0,0,0Zm.79,32.37h-1.53l-10.35-22.43,5.36,2.14h0l5.74,12.57,5.71-12.57,5.25-1.98-10.19,22.26h0Z"></path></g><g id="Group_272" data-name="Group 272"><g id="Group_271" data-name="Group 271"><g id="Group_270" data-name="Group 270"><path id="Path_838" data-name="Path 838" class="cls-1" d="m2244.99,36.68c-.53.27-1.12.4-1.71.37-.54.03-1.07-.16-1.48-.52-.41-.47-.61-1.08-.55-1.7-.61.75-1.39,1.34-2.29,1.7-1.5.57-3.13.68-4.69.3-.55-.13-1.07-.37-1.53-.7-.44-.33-.79-.76-1.02-1.25-.27-.59-.4-1.22-.38-1.87-.03-.7.12-1.39.42-2.02.27-.51.65-.95,1.11-1.28.48-.34,1.01-.59,1.57-.74.6-.17,1.2-.31,1.81-.42.65-.13,1.28-.23,1.87-.3.53-.05,1.05-.15,1.56-.28.39-.09.76-.28,1.07-.53.28-.27.42-.64.39-1.02.02-.44-.08-.88-.3-1.26-.18-.31-.45-.56-.76-.73-.32-.17-.68-.29-1.04-.34-.38-.05-.76-.08-1.14-.08-.88-.03-1.75.17-2.53.58-.73.48-1.14,1.31-1.1,2.17h-2.38c0-.79.2-1.57.56-2.28.32-.6.78-1.12,1.35-1.5.58-.39,1.24-.67,1.92-.83.76-.17,1.54-.26,2.32-.25.65,0,1.31.05,1.95.14.61.08,1.21.28,1.75.58.52.29.96.71,1.26,1.22.34.63.51,1.33.48,2.04v7.46c-.02.41.02.83.1,1.23.06.26.29.39.66.39.25,0,.49-.05.73-.12v1.86h0Zm-3.88-7.44c-.35.25-.76.41-1.18.49-.49.1-1,.19-1.53.25s-1.07.14-1.61.23c-.5.07-.99.21-1.46.4-.41.17-.78.45-1.05.8-.29.41-.44.91-.41,1.41-.01.35.07.69.23.99.15.26.36.49.62.66.27.18.57.3.89.36.35.08.71.11,1.07.11.69.02,1.37-.09,2.02-.32.51-.18.98-.46,1.38-.81.33-.3.6-.66.79-1.06.16-.34.24-.7.25-1.08v-2.44Z"></path><path id="Path_839" data-name="Path 839" class="cls-1" d="m2249.46,22.21v2.3h.06c.93-1.72,2.77-2.75,4.72-2.64.81-.02,1.62.11,2.39.39.6.23,1.13.61,1.55,1.1.4.49.68,1.06.83,1.67.16.7.24,1.43.23,2.15v9.55h-2.38v-9.83c.04-.79-.24-1.56-.79-2.13-.58-.55-1.36-.83-2.16-.79-.65-.02-1.29.1-1.9.34-.51.21-.97.54-1.33.96-.36.42-.64.92-.8,1.45-.18.59-.27,1.2-.26,1.81v8.2h-2.38v-14.52h2.25Z"></path><path id="Path_840" data-name="Path 840" class="cls-1" d="m2265.21,16.68v7.67h.06c.18-.43.44-.82.79-1.14.34-.31.72-.56,1.14-.76.42-.2.86-.34,1.32-.44.44-.09.89-.14,1.34-.14.81-.02,1.62.11,2.39.39.6.23,1.13.61,1.55,1.1.4.49.69,1.06.83,1.67.16.7.24,1.43.23,2.15v9.55h-2.38v-9.83c.04-.79-.24-1.56-.79-2.13-.58-.55-1.36-.83-2.16-.79-.65-.01-1.29.1-1.9.34-.51.21-.97.54-1.34.96-.36.42-.63.92-.8,1.45-.18.59-.27,1.2-.26,1.81v8.2h-2.39v-20.06h2.39Z"></path><path id="Path_841" data-name="Path 841" class="cls-1" d="m2288.72,35.8c-1.19.86-2.63,1.29-4.1,1.23-1.04.03-2.06-.17-3.02-.56-.83-.36-1.56-.89-2.15-1.57-.6-.71-1.04-1.53-1.31-2.42-.3-.99-.47-2.02-.49-3.06-.01-1.03.16-2.06.51-3.03.31-.88.8-1.69,1.42-2.39.6-.67,1.34-1.21,2.16-1.57.86-.38,1.8-.57,2.74-.56,1.13-.04,2.25.23,3.22.8.83.51,1.53,1.21,2.05,2.04.52.83.88,1.74,1.07,2.7.19.92.27,1.85.23,2.78h-10.87c-.02.61.06,1.22.23,1.81.16.56.44,1.07.81,1.52.39.45.88.81,1.43,1.05.65.28,1.35.41,2.05.39.88.04,1.75-.21,2.48-.7.68-.52,1.14-1.29,1.28-2.13h2.36c-.21,1.45-.96,2.77-2.11,3.68h0Zm-.58-9.33c-.2-.49-.5-.93-.87-1.31-.37-.37-.81-.67-1.29-.87-.52-.22-1.08-.33-1.64-.32-.57,0-1.14.1-1.67.32-.48.2-.92.51-1.28.89-.36.38-.64.82-.84,1.31-.21.5-.33,1.04-.37,1.58h8.34c-.04-.55-.16-1.09-.38-1.6h0Z"></path><path id="Path_842" data-name="Path 842" class="cls-1" d="m2293.67,16.68h2.39v2.92h-2.39v-2.92Zm2.39,5.53v14.52h-2.39v-14.51h2.39"></path><path id="Path_843" data-name="Path 843" class="cls-1" d="m2302.01,22.21v2.13h.06c1.58-2.32,4.61-3.13,7.14-1.91.75.4,1.31,1.09,1.55,1.91.47-.77,1.13-1.4,1.92-1.83.81-.43,1.71-.65,2.63-.64.67-.01,1.33.07,1.98.23.55.14,1.07.39,1.52.74.43.35.77.8.98,1.31.25.61.37,1.26.35,1.92v10.65h-2.39v-9.51c0-.42-.04-.85-.12-1.26-.06-.37-.21-.72-.42-1.02-.22-.3-.51-.54-.85-.69-.45-.18-.93-.27-1.42-.25-1.03-.06-2.03.31-2.78,1.01-.69.72-1.06,1.7-1.01,2.7v9.04h-2.39v-9.52c0-.43-.04-.87-.13-1.29-.07-.37-.22-.72-.43-1.02-.21-.29-.5-.53-.83-.68-.42-.17-.88-.25-1.34-.23-.62-.02-1.23.13-1.78.42-.47.25-.88.6-1.21,1.01-.29.36-.52.78-.67,1.22-.12.34-.2.69-.21,1.05v9.04h-2.39v-14.53h2.25,0Z"></path><path id="Path_844" data-name="Path 844" class="cls-1" d="m2175.88,6.69c-11.02,0-19.96,8.93-19.96,19.96,0,11.02,8.93,19.96,19.96,19.96,11.02,0,19.96-8.93,19.96-19.96h0c0-11.02-8.93-19.96-19.96-19.96m0,37.65c-9.77,0-17.69-7.92-17.69-17.69s7.92-17.69,17.69-17.69,17.69,7.92,17.69,17.69h0c0,9.77-7.92,17.69-17.69,17.69"></path><path id="Path_845" data-name="Path 845" class="cls-1" d="m2163.26,32.72l1.75-14.9c-3.41,4.21-4.09,10.01-1.75,14.9"></path><path id="Path_846" data-name="Path 846" class="cls-1" d="m2179.89,13.22c-2.62-.77-5.4-.77-8.01,0l4.01,12.53,4.01-12.53Z"></path><path id="Path_847" data-name="Path 847" class="cls-1" d="m2177.32,38.77h-2.87l-4.64-14.44-.97,14.44c4.36,2.53,9.73,2.53,14.09,0l-.97-14.44-4.64,14.44"></path><path id="Path_848" data-name="Path 848" class="cls-1" d="m2188.5,32.75h0c2.36-4.89,1.68-10.71-1.74-14.93l1.74,14.93Z"></path><path id="Path_837" data-name="Path 837" class="cls-1" d="m2211.77,16.69l6.31,16.83,6.34-16.83h3.66v20.03h-2.53v-16.66h-.06l-6.26,16.66h-2.27l-6.26-16.66h-.05v16.66h-2.53v-20.03h3.65Z"></path></g></g></g><g id="Group_1187" data-name="Group 1187"><g id="Group_273" data-name="Group 273"><path id="Path_850" data-name="Path 850" class="cls-1" d="m2446.91,27.35c-.19-.95-.55-1.86-1.06-2.68-.52-.82-1.22-1.52-2.04-2.03-.97-.56-2.08-.84-3.2-.8-.94-.01-1.87.18-2.73.56-.82.36-1.55.9-2.15,1.57-.62.69-1.1,1.5-1.41,2.38-.35.97-.52,1.99-.5,3.02.03,1.03.19,2.06.49,3.05.26.88.71,1.7,1.3,2.41.59.68,1.32,1.21,2.14,1.57.95.39,1.98.58,3.01.56,1.46.06,2.9-.38,4.08-1.23h0c1.14-.91,1.89-2.22,2.1-3.67h-2.35c-.14.84-.6,1.6-1.27,2.13-.73.49-1.6.73-2.48.69-.7.02-1.4-.12-2.04-.39-.55-.24-1.04-.6-1.43-1.05-.37-.44-.65-.96-.81-1.51-.17-.59-.25-1.2-.23-1.81h10.82c.04-.93-.04-1.85-.23-2.76m-10.59.67c.03-.54.16-1.08.36-1.58.2-.48.48-.92.84-1.3.36-.38.79-.68,1.27-.88.53-.22,1.09-.33,1.66-.32.56,0,1.12.1,1.64.32.48.21.92.5,1.29.87.37.37.67.81.87,1.3h0c.21.51.34,1.05.38,1.6h-8.31Z"></path><path id="Path_851" data-name="Path 851" class="cls-1" d="m2461.44,22.17h-2.85l-3.61,5.07-3.47-5.07h-3.05l5.04,6.85-5.43,7.62h2.88l4.03-5.99,4.03,5.99h3.05l-5.6-7.81,4.98-6.67Z"></path><path id="Path_852" data-name="Path 852" class="cls-1" d="m2467.4,17.83h-2.38v4.34h-2.46v2.1h2.46v9.21c-.02.55.05,1.09.2,1.62.1.37.31.7.6.95.31.24.68.4,1.06.46.52.09,1.05.13,1.58.13h1.82v-2.1h-1.08c-.31,0-.62-.01-.92-.04-.19-.01-.38-.08-.55-.18-.13-.09-.23-.23-.26-.39-.05-.22-.07-.45-.07-.67v-8.98h2.88v-2.1h-2.88v-4.34Z"></path><path id="Path_853" data-name="Path 853" class="cls-1" d="m2481.87,28.36h6.38c.04.87-.08,1.74-.36,2.56-.53,1.57-1.73,2.84-3.27,3.45-.88.35-1.82.52-2.76.5-1.99.05-3.88-.85-5.09-2.42-.59-.76-1.04-1.62-1.31-2.55-.3-.97-.45-1.99-.45-3.01,0-1.05.13-2.1.39-3.12.24-.97.65-1.89,1.22-2.71.55-.79,1.28-1.45,2.13-1.92.96-.51,2.03-.76,3.12-.73.71,0,1.42.08,2.11.26.63.16,1.23.43,1.78.8.53.36.97.82,1.31,1.36.37.6.62,1.27.73,1.97h2.66c-.15-1.06-.51-2.08-1.05-3.01-.49-.81-1.14-1.5-1.9-2.06-.78-.55-1.65-.95-2.57-1.19-1-.26-2.03-.38-3.06-.38-1.43-.03-2.85.27-4.14.88-1.15.56-2.16,1.37-2.97,2.36-.81,1.03-1.42,2.2-1.79,3.45-.41,1.34-.61,2.74-.6,4.14,0,1.29.22,2.56.64,3.78.41,1.19,1.05,2.28,1.87,3.22.83.94,1.85,1.7,2.99,2.22,1.26.57,2.62.85,4,.82,1.2,0,2.39-.24,3.5-.69h0c1.16-.46,2.17-1.24,2.91-2.25l.69,2.49h1.68v-10.5h-8.75v2.24Z"></path><path id="Path_854" data-name="Path 854" class="cls-1" d="m2506.47,27.35c-.19-.95-.55-1.86-1.06-2.68-.52-.82-1.22-1.52-2.04-2.03-.97-.56-2.08-.84-3.2-.8-.94-.01-1.87.18-2.73.56-.82.36-1.55.9-2.15,1.57-.62.69-1.1,1.5-1.41,2.38-.35.97-.52,1.99-.5,3.02.03,1.03.19,2.06.49,3.05.26.88.71,1.7,1.3,2.41.59.68,1.32,1.21,2.14,1.57.95.39,1.98.58,3.01.56,1.46.06,2.9-.38,4.08-1.23h0c1.14-.91,1.89-2.22,2.1-3.67h-2.35c-.14.84-.6,1.6-1.27,2.13-.73.49-1.6.73-2.48.69-.7.02-1.4-.12-2.04-.39-.55-.24-1.04-.6-1.43-1.05-.37-.44-.65-.96-.81-1.51-.17-.59-.25-1.2-.23-1.81h10.82c.04-.93-.04-1.85-.23-2.76m-10.59.67c.03-.54.16-1.08.36-1.58.2-.48.48-.92.84-1.3.36-.38.79-.68,1.27-.88.53-.22,1.09-.33,1.66-.32.56,0,1.12.1,1.64.32.48.21.92.5,1.29.87.37.37.67.81.87,1.3h0c.21.51.34,1.05.38,1.6h-8.31Z"></path><path id="Path_855" data-name="Path 855" class="cls-1" d="m2520.6,34.46c-.08-.4-.11-.82-.1-1.23v-7.43c.03-.71-.13-1.42-.48-2.04-.31-.51-.74-.93-1.26-1.22-.54-.3-1.14-.49-1.75-.57-.64-.09-1.29-.14-1.94-.14-.77,0-1.55.08-2.3.25-.68.15-1.33.43-1.92.82-.56.38-1.02.9-1.34,1.5-.36.7-.55,1.48-.56,2.27h2.38c-.05-.87.37-1.69,1.09-2.17.77-.4,1.64-.6,2.51-.56.38,0,.76.03,1.13.08.36.05.71.16,1.03.34.31.17.57.42.76.73.21.39.31.82.29,1.26.03.38-.12.75-.39,1.02-.31.26-.67.44-1.06.53-.51.13-1.03.22-1.55.28-.59.07-1.21.17-1.86.29-.61.11-1.21.25-1.81.42-.56.16-1.09.41-1.57.74-.46.33-.84.77-1.11,1.27-.3.63-.45,1.32-.42,2.01-.02.64.11,1.28.38,1.86.23.49.58.92,1.02,1.25.46.33.98.56,1.52.69,1.55.38,3.18.27,4.67-.29.89-.36,1.68-.94,2.28-1.69-.06.62.14,1.23.55,1.69.4.36.93.55,1.47.52.59.03,1.18-.09,1.71-.36h0v-1.84c-.24.07-.48.11-.73.11-.37,0-.59-.13-.66-.39m-2.48-5.3v2.42c0,.37-.09.74-.25,1.07-.19.4-.45.76-.78,1.06-.4.35-.87.63-1.37.81-.65.23-1.33.34-2.01.32-.36,0-.71-.03-1.06-.11-.31-.06-.61-.19-.88-.36-.25-.17-.46-.39-.61-.66-.16-.3-.24-.65-.23-.99-.03-.5.11-1,.41-1.41.28-.35.64-.62,1.05-.79.47-.2.95-.33,1.46-.41.54-.08,1.08-.16,1.61-.23s1.04-.15,1.52-.25c.42-.08.82-.24,1.17-.49v.02Z"></path><path id="Path_856" data-name="Path 856" class="cls-1" d="m2526.4,25.22h-.06v-3.05h-2.24v14.46h2.38v-6.43c-.01-.83.08-1.67.28-2.48.16-.67.47-1.3.9-1.84.43-.52.99-.92,1.62-1.15.78-.28,1.61-.41,2.43-.39v-2.5c-1.12-.08-2.23.19-3.19.78-.93.66-1.66,1.56-2.13,2.6"></path><path id="Path_857" data-name="Path 857" class="cls-1" d="m2555.41,31.41c-.26.68-.65,1.31-1.15,1.84-.5.52-1.1.92-1.76,1.2-.74.3-1.54.45-2.33.43-1.06.03-2.12-.2-3.08-.67-.83-.43-1.56-1.05-2.11-1.81-.57-.8-.98-1.7-1.22-2.66-.27-1.05-.4-2.14-.39-3.22,0-1.02.13-2.04.39-3.02.24-.93.65-1.81,1.22-2.59.55-.76,1.27-1.37,2.1-1.81.95-.47,2-.7,3.06-.67,1.29-.03,2.56.34,3.62,1.06h0c1.05.76,1.76,1.91,1.97,3.19h2.66c-.13-.99-.45-1.95-.95-2.81-.47-.79-1.08-1.48-1.82-2.03-.75-.55-1.59-.97-2.49-1.23-.96-.28-1.96-.42-2.97-.42-1.4-.03-2.79.25-4.07.82-1.14.52-2.16,1.29-2.97,2.25-.81.99-1.43,2.12-1.81,3.34-.42,1.33-.62,2.71-.61,4.1,0,1.38.18,2.76.57,4.08.35,1.2.93,2.33,1.72,3.3.78.94,1.76,1.7,2.88,2.2,1.28.56,2.66.83,4.06.8,2.21.12,4.38-.63,6.04-2.1,1.55-1.58,2.48-3.66,2.6-5.87h-2.66c-.05.79-.22,1.57-.5,2.3"></path><path id="Path_858" data-name="Path 858" class="cls-1" d="m2572.92,34.46c-.08-.4-.11-.82-.1-1.23v-7.43c.03-.71-.13-1.42-.48-2.04-.31-.51-.74-.93-1.26-1.22-.54-.3-1.14-.49-1.75-.57-.64-.09-1.29-.14-1.94-.14-.77,0-1.55.08-2.3.25-.68.15-1.33.43-1.92.82-.56.38-1.02.9-1.34,1.5-.36.7-.55,1.48-.56,2.27h2.38c-.05-.87.37-1.69,1.09-2.17.77-.41,1.64-.6,2.52-.57.38,0,.76.03,1.13.08.36.05.71.16,1.03.34.31.17.57.42.76.73.21.39.31.82.29,1.26.03.38-.12.75-.39,1.02-.31.26-.67.44-1.06.53-.51.13-1.03.22-1.55.28-.59.07-1.21.17-1.86.29-.61.11-1.21.25-1.81.42-.56.16-1.09.41-1.57.74-.46.33-.84.77-1.11,1.27-.3.63-.45,1.32-.42,2.01-.02.64.11,1.28.38,1.86.23.49.58.92,1.02,1.25.46.33.98.56,1.52.69,1.55.38,3.18.27,4.67-.29.89-.36,1.68-.94,2.28-1.69-.06.62.14,1.23.55,1.69.4.36.93.55,1.47.52.59.03,1.18-.09,1.71-.36v-1.84c-.24.07-.48.11-.73.11-.38,0-.59-.13-.66-.39m-2.48-5.3v2.42c0,.37-.09.74-.25,1.07-.19.4-.45.76-.78,1.06-.4.35-.87.63-1.37.81-.65.23-1.33.34-2.01.32-.36,0-.71-.03-1.06-.11-.31-.06-.61-.19-.88-.36-.25-.17-.46-.39-.61-.66-.16-.3-.24-.65-.23-.99-.03-.5.11-1,.41-1.41.28-.35.64-.62,1.05-.79.47-.2.95-.33,1.46-.41.54-.08,1.08-.16,1.61-.23s1.04-.15,1.52-.25c.42-.08.82-.24,1.17-.49v.02Z"></path><path id="Path_859" data-name="Path 859" class="cls-1" d="m2588.64,24.11c-.56-.7-1.26-1.27-2.07-1.66-.91-.43-1.92-.64-2.92-.61-.95,0-1.89.18-2.76.55-.81.34-1.46.96-1.84,1.75h-.06v-1.96h-2.38v19.97h2.38v-7.43h.06c.25.42.58.78.96,1.08.37.29.78.52,1.22.69.42.17.86.29,1.3.36.39.07.79.11,1.19.11,1,.02,1.98-.18,2.89-.59.8-.37,1.51-.92,2.07-1.61.57-.71.99-1.52,1.23-2.39.27-.95.41-1.93.41-2.91,0-.99-.14-1.97-.42-2.91-.26-.88-.68-1.7-1.25-2.42m-1.08,7.23c-.14.64-.38,1.24-.73,1.79-.33.52-.79.95-1.33,1.26-.63.34-1.34.5-2.06.48-.73.02-1.45-.14-2.1-.46-.56-.29-1.04-.71-1.41-1.22-.37-.53-.64-1.12-.8-1.75-.17-.67-.25-1.36-.25-2.06,0-.67.07-1.34.23-1.99.15-.62.41-1.22.77-1.75.76-1.13,2.05-1.78,3.41-1.72.69-.02,1.38.14,2,.45.55.29,1.03.7,1.4,1.2.37.52.65,1.1.81,1.72h0c.18.64.27,1.31.26,1.97,0,.7-.08,1.39-.23,2.07"></path><rect id="Rectangle_370" data-name="Rectangle 370" class="cls-1" x="2593.24" y="22.17" width="2.38" height="14.46"></rect><rect id="Rectangle_371" data-name="Rectangle 371" class="cls-1" x="2593.24" y="16.65" width="2.38" height="2.91"></rect><path id="Path_860" data-name="Path 860" class="cls-1" d="m2602.62,17.83h-2.38v4.34h-2.46v2.1h2.46v9.21c-.02.55.05,1.09.2,1.62.1.37.31.7.6.95.31.24.68.4,1.06.46.52.09,1.05.13,1.58.13h1.82v-2.1h-1.09c-.31,0-.62-.01-.92-.04-.19-.01-.38-.08-.55-.18-.13-.09-.23-.23-.26-.39-.05-.22-.07-.45-.07-.67v-8.98h2.88v-2.1h-2.88v-4.34Z"></path><path id="Path_861" data-name="Path 861" class="cls-1" d="m2619.56,34.46c-.08-.4-.11-.82-.1-1.23v-7.43c.03-.71-.13-1.42-.48-2.04-.31-.51-.74-.93-1.26-1.22-.54-.3-1.14-.49-1.75-.57-.64-.09-1.29-.14-1.94-.14-.77,0-1.55.08-2.3.25-.68.15-1.33.43-1.92.82-.56.38-1.02.9-1.34,1.5-.36.7-.55,1.48-.56,2.27h2.38c-.05-.87.37-1.69,1.09-2.17.77-.41,1.64-.6,2.52-.57.38,0,.76.03,1.13.08.36.05.71.16,1.03.34.31.17.57.42.76.73.21.39.31.82.29,1.26.03.38-.12.75-.39,1.02-.31.26-.67.44-1.06.53-.51.13-1.03.22-1.55.28-.59.07-1.21.17-1.86.29-.61.11-1.21.25-1.81.42-.56.16-1.09.41-1.57.74-.46.33-.84.77-1.11,1.27-.3.63-.45,1.32-.42,2.01-.02.64.11,1.28.38,1.86.23.49.58.92,1.02,1.25.46.33.98.56,1.52.69,1.55.38,3.18.27,4.67-.29.89-.36,1.68-.94,2.28-1.69-.06.62.14,1.23.55,1.69.4.36.93.55,1.47.52.59.03,1.18-.09,1.71-.36h0v-1.84c-.24.07-.48.11-.73.11-.38,0-.59-.13-.66-.39m-2.48-5.3v2.42c0,.37-.09.74-.25,1.07-.19.4-.45.76-.78,1.06-.4.35-.87.63-1.37.81-.65.23-1.33.34-2.01.32-.36,0-.71-.03-1.06-.11-.31-.06-.61-.19-.88-.36-.25-.17-.46-.39-.61-.66-.16-.3-.24-.65-.23-.99-.03-.5.11-1,.41-1.41.28-.35.64-.62,1.05-.79.47-.2.95-.33,1.46-.41.54-.08,1.08-.16,1.61-.23s1.04-.15,1.52-.25c.42-.08.82-.24,1.17-.49v.02Z"></path><rect id="Rectangle_372" data-name="Rectangle 372" class="cls-1" x="2623.29" y="16.66" width="2.38" height="19.98"></rect><path id="Path_862" data-name="Path 862" class="cls-1" d="m2385,21.84h9.21c-2.53-6.21-9.62-9.19-15.83-6.66-6.21,2.53-9.19,9.62-6.66,15.83,2.53,6.21,9.62,9.19,15.83,6.66,2.9-1.18,5.23-3.44,6.5-6.3h-9.06v-9.54Z"></path><path id="Path_863" data-name="Path 863" class="cls-1" d="m2397.87,24.17h-10.66v4.77h10.68c-1.2,8.37-8.96,14.19-17.33,12.98-8.37-1.2-14.19-8.96-12.98-17.33,1.2-8.37,8.96-14.19,17.33-12.98,5.7.82,10.47,4.77,12.32,10.23h4.96c-2.78-10.55-13.58-16.84-24.12-14.07-10.55,2.78-16.84,13.58-14.07,24.12,2.78,10.55,13.58,16.84,24.12,14.07,8.75-2.3,14.82-10.26,14.72-19.31,0-.83-.05-1.65-.16-2.47h-4.81Z"></path><path id="Path_849" data-name="Path 849" class="cls-1" d="m2428.14,32.86h-.06l-10.52-16.2h-2.83v19.98h2.52v-16.04h.06l10.44,16.03h2.91v-19.97h-2.52v16.2Z"></path></g></g><g id="Group_967" data-name="Group 967"><g id="Group_968" data-name="Group 968"><g id="Group_967-2" data-name="Group 967-2"><path id="Path_2546" data-name="Path 2546" class="cls-1" d="m1933.29,31.52c.03,1.27,1.09,2.27,2.36,2.24.05,0,.1,0,.16,0,1.11.09,2.21-.35,2.95-1.19l2.6,2.6c-1.41,1.55-3.45,2.38-5.54,2.26-3.16,0-6.79-1.15-6.79-7.3,0-4.67,2.65-7.3,6.39-7.3,3.45-.11,6.33,2.6,6.44,6.04,0,.24,0,.48-.02.72v1.94h-8.55Zm4.01-4.01c-.57-1.04-1.88-1.42-2.92-.85-.36.2-.65.49-.85.85-.16.35-.24.73-.23,1.11h4.25c.01-.38-.07-.77-.23-1.11"></path><path id="Path_2547" data-name="Path 2547" class="cls-1" d="m1948.38,37.25c-2.26.18-4.24-1.51-4.42-3.78-.01-.15-.02-.3-.01-.44v-14.67h4.35v14.35c-.05.43.25.82.68.87.06,0,.13,0,.19,0h1.51v3.66h-2.31Z"></path><path id="Path_2548" data-name="Path 2548" class="cls-1" d="m1957.01,37.25c-2.26.18-4.24-1.51-4.42-3.78-.01-.15-.02-.3-.01-.44v-14.67h4.35v14.35c-.05.43.25.82.68.87.07,0,.13,0,.2,0h1.51v3.66h-2.31Z"></path><path id="Path_2549" data-name="Path 2549" class="cls-1" d="m1965.02,31.52c.03,1.27,1.09,2.27,2.36,2.24.05,0,.1,0,.16,0,1.12.09,2.21-.35,2.95-1.19l2.6,2.6c-1.41,1.55-3.45,2.38-5.54,2.26-3.16,0-6.79-1.15-6.79-7.3,0-4.67,2.65-7.3,6.39-7.3,3.45-.11,6.33,2.6,6.44,6.04,0,.24,0,.48-.02.72v1.94h-8.55Zm4.01-4.01c-.57-1.04-1.88-1.42-2.92-.85-.36.2-.65.49-.85.85-.16.35-.24.73-.23,1.11h4.25c.01-.38-.07-.77-.23-1.11"></path><path id="Path_2550" data-name="Path 2550" class="cls-1" d="m1981.92,38.95c-.23.7-.61,1.35-1.11,1.88-.85.84-2.02,1.28-3.21,1.19h-1.65v-3.93h.92c.7.11,1.35-.37,1.46-1.06l.4-1.19-4.75-12.87h4.56l2.42,7.4,2.3-7.4h4.56l-5.9,15.97Z"></path><path id="Path_2551" data-name="Path 2551" class="cls-1" d="m2003.13,37.25h-8.23v-18.88h7.83c2.9-.4,5.57,1.62,5.98,4.51.04.32.06.63.05.95-.02,1.51-.8,2.92-2.07,3.74,1.51.8,2.42,2.4,2.33,4.11.13,2.96-2.17,5.46-5.13,5.59-.25.01-.51,0-.76-.02m-.69-14.74h-2.89v3.08h2.89c.85.07,1.59-.57,1.66-1.42.07-.85-.57-1.59-1.42-1.66-.08,0-.16,0-.24,0m.23,7.24h-3.13v3.32h3.13c.86.08,1.62-.55,1.7-1.41,0-.09,0-.17,0-.26.06-.85-.58-1.59-1.42-1.65-.09,0-.18,0-.28,0"></path><path id="Path_2552" data-name="Path 2552" class="cls-1" d="m2015.86,37.25c-2.26.18-4.24-1.51-4.42-3.78-.01-.15-.02-.3-.01-.44v-14.67h4.35v14.35c-.05.43.25.82.68.87.07,0,.13,0,.2,0h1.51v3.66h-2.31Z"></path><path id="Path_2553" data-name="Path 2553" class="cls-1" d="m2028.01,37.25v-1.17c-.9.85-2.08,1.32-3.32,1.33-1.19.04-2.35-.4-3.21-1.22-1.04-1.09-1.57-2.58-1.43-4.09v-9.13h4.35v8.54c-.11.97.59,1.84,1.56,1.94s1.84-.59,1.94-1.56c.01-.13.01-.25,0-.38v-8.54h4.35v14.28h-4.25Z"></path><path id="Path_2554" data-name="Path 2554" class="cls-1" d="m2038.78,31.52c.03,1.27,1.09,2.27,2.36,2.24.05,0,.1,0,.16,0,1.12.09,2.21-.35,2.95-1.19l2.6,2.6c-1.41,1.55-3.45,2.38-5.54,2.26-3.16,0-6.79-1.15-6.79-7.3,0-4.67,2.65-7.3,6.39-7.3,3.45-.11,6.33,2.6,6.44,6.04,0,.24,0,.48-.02.72v1.94h-8.55Zm4.01-4.01c-.57-1.04-1.88-1.42-2.92-.85-.36.2-.65.49-.85.85-.16.35-.24.73-.23,1.11h4.25c.01-.38-.07-.77-.23-1.11"></path><path id="Path_2555" data-name="Path 2555" class="cls-1" d="m2063.82,37.25h-8.23v-18.88h7.83c2.9-.4,5.57,1.62,5.98,4.51.04.32.06.63.05.95-.02,1.51-.8,2.92-2.07,3.74,1.51.8,2.42,2.4,2.33,4.11.13,2.96-2.17,5.46-5.13,5.59-.25.01-.51,0-.76-.02m-.69-14.74h-2.9v3.08h2.89c.85.07,1.59-.57,1.66-1.42.07-.85-.57-1.59-1.42-1.66-.08,0-.16,0-.24,0m.23,7.24h-3.12v3.32h3.13c.86.08,1.62-.55,1.7-1.41,0-.09,0-.17,0-.26.06-.85-.58-1.59-1.42-1.65-.09,0-.18,0-.28,0"></path><path id="Path_2556" data-name="Path 2556" class="cls-1" d="m2082.48,35.58c-2.57,2.44-6.61,2.44-9.18,0-1.27-1.52-1.83-3.51-1.57-5.47-.26-1.96.3-3.94,1.57-5.47,2.57-2.44,6.61-2.44,9.18,0,1.26,1.52,1.83,3.51,1.57,5.47.27,1.96-.3,3.95-1.57,5.47m-3.42-8.44c-.69-.53-1.65-.53-2.33,0-.56.56-.64,1.57-.64,2.97s.08,2.42.64,2.97c.69.53,1.65.53,2.33,0,.56-.56.64-1.57.64-2.97s-.08-2.42-.64-2.97"></path><path id="Path_2557" data-name="Path 2557" class="cls-1" d="m2096.68,35.58c-2.57,2.44-6.61,2.44-9.18,0-1.27-1.52-1.83-3.51-1.57-5.47-.26-1.96.3-3.94,1.57-5.47,2.57-2.44,6.61-2.44,9.18,0,1.26,1.52,1.83,3.51,1.57,5.47.27,1.96-.3,3.95-1.57,5.47m-3.42-8.44c-.69-.53-1.65-.53-2.33,0-.56.56-.64,1.57-.64,2.97s.08,2.42.64,2.97c.69.53,1.65.53,2.33,0,.56-.56.64-1.57.64-2.97s-.08-2.42-.64-2.97"></path><path id="Path_2558" data-name="Path 2558" class="cls-1" d="m2108.78,37.25l-2.97-5.23-.85.92v4.3h-4.35v-18.88h4.35v9.6l3.85-4.99h5.23l-5.25,5.92,5.39,8.36h-5.39Z"></path><path id="Path_2559" data-name="Path 2559" class="cls-1" d="m1904.3,28.26l2.81-1.79-2.8-1.8,2.4-2.3-3.1-1.21,1.9-2.73-3.28-.59,1.34-3.05-3.33.06.72-3.26-3.18.69V0h-24.27v12.09l-2.3-.51.71,3.25-3.34-.07,1.34,3.05-3.27.58,1.9,2.73-3.11,1.21,2.4,2.3-2.81,1.8,2.8,1.8-2.4,2.3,3.1,1.21-1.89,2.74,3.28.59-1.34,3.05,3.33-.06-.72,3.25,2.31-.51v20.23l12.14-9.32,12.13,9.32v-20.41l3.16.69-.71-3.25,3.33.07-1.34-3.05,3.28-.58-1.92-2.73,3.1-1.21-2.4-2.3Zm-29.73-27.2h22.13v8.38l-2,.88-.58-3.28-2.73,1.9-1.21-3.11-2.3,2.4-1.8-2.81-1.8,2.8-2.3-2.4-1.22,3.1-2.73-1.91-.58,3.28-2.87-1.25V1.06Zm11.08,49.33l-11.08,8.51v-15.04l2.86-1.25.58,3.28,2.73-1.91,1.21,3.1,2.3-2.4,1.79,2.81,1.8-2.8,2.3,2.4,1.21-3.1,2.73,1.9.58-3.28,2.02.88v15.4l-11.06-8.5Zm11.07-10.07c-7.65,5.84-18.58,4.37-24.42-3.27-5.84-7.65-4.37-18.58,3.27-24.42,7.65-5.84,18.58-4.37,24.42,3.27,2.32,3.04,3.58,6.75,3.58,10.57,0,5.43-2.54,10.55-6.85,13.84"></path><path id="Path_2560" data-name="Path 2560" class="cls-1" d="m1876.63,22.36c1.63-3.76,5.34-6.19,9.44-6.19h.03c4.1,0,7.81,2.43,9.44,6.19l.17.38h2.04l-.36-.88c-2.52-6.24-9.61-9.26-15.85-6.75-3.07,1.24-5.51,3.67-6.75,6.75l-.35.88h2.04l.17-.38Z"></path><path id="Path_2561" data-name="Path 2561" class="cls-1" d="m1895.5,30.65c-1.65,3.72-5.34,6.12-9.41,6.13h0c-4.07,0-7.76-2.4-9.41-6.13l-.17-.38h-2.05l.37.88c2.58,6.22,9.71,9.17,15.92,6.6,2.99-1.24,5.36-3.61,6.6-6.6l.37-.88h-2.04l-.17.38Z"></path></g><path id="Path_2545" data-name="Path 2545" class="cls-1" d="m1923.43,37.25l-4.35-7.75-1.59,1.83v5.92h-4.59v-18.88h4.59v6.68l5.47-6.68h5.68l-6.45,7.64,6.66,11.25h-5.42Z"></path></g></g><g><g><path class="cls-1" d="m1633.64,35.78c-.02,1.29-.2,2.56-.52,3.79,2.87-3.48,4.6-7.93,4.6-12.79,0-11.11-9-20.11-20.11-20.11-5.11,0-9.77,1.91-13.32,5.05,16.93,2.59,29.52,12.45,29.35,24.06h0Z"></path><path class="cls-1" d="m1611.26,21.86c.06-4.03-3.08-7.58-7.73-9.43-3.72,3.65-6.03,8.73-6.03,14.35,0,1.87.26,3.68.74,5.4,7.29-.62,12.95-4.96,13.02-10.31h0Z"></path><path class="cls-1" d="m1614.47,15.58s-2.96-2.19-10.21-3.53l-.23.03s3.88.69,8.14,3.49h2.31,0Z"></path><path class="cls-1" d="m1617.47,17.67l-2.49.12s5.52,4.89,4.64,10.51h5.31s-.8-5.67-7.46-10.62Z"></path><path class="cls-1" d="m1624.66,34.14h-6.45c-3.38,5.11-8.47,7.52-12.75,8.66,2.54,1.93,5.56,3.27,8.84,3.8,9.08-4.95,10.36-12.47,10.36-12.47h0Z"></path></g><g><path class="cls-1" d="m1662.9,16.65v2.24h-10.45v6.34h9.16v2.24h-9.16v9.14h-2.65v-19.95h13.1Z"></path><path class="cls-1" d="m1667.95,16.65v19.95h-2.38v-19.95h2.38Z"></path><path class="cls-1" d="m1681.87,35.67c-1.08.82-2.44,1.23-4.08,1.23-1.15,0-2.16-.18-3-.56-.85-.37-1.56-.89-2.14-1.56-.58-.67-1.01-1.47-1.3-2.4-.29-.93-.45-1.94-.49-3.04,0-1.1.17-2.11.5-3.02.34-.91.8-1.71,1.41-2.38.61-.67,1.32-1.19,2.15-1.56s1.74-.56,2.73-.56c1.28,0,2.35.26,3.2.8.85.53,1.53,1.21,2.04,2.03s.87,1.71,1.06,2.68.27,1.89.24,2.77h-10.81c-.02.63.05,1.23.22,1.8.17.57.44,1.07.81,1.51.37.44.85.79,1.42,1.05.58.26,1.26.39,2.04.39,1.01,0,1.83-.23,2.47-.7s1.06-1.17,1.27-2.12h2.35c-.32,1.62-1.01,2.84-2.1,3.66h0Zm-.57-9.28c-.22-.5-.5-.93-.87-1.3s-.79-.65-1.28-.87c-.49-.21-1.04-.32-1.63-.32s-1.17.11-1.66.32c-.49.22-.92.51-1.27.88-.35.37-.63.8-.84,1.3-.21.49-.33,1.02-.36,1.58h8.3c-.04-.56-.16-1.09-.38-1.59h0Z"></path><path class="cls-1" d="m1696.87,35.67c-1.08.82-2.44,1.23-4.08,1.23-1.15,0-2.16-.18-3-.56-.85-.37-1.56-.89-2.14-1.56-.58-.67-1.01-1.47-1.3-2.4-.29-.93-.45-1.94-.49-3.04,0-1.1.17-2.11.5-3.02.34-.91.8-1.71,1.41-2.38s1.32-1.19,2.15-1.56,1.74-.56,2.73-.56c1.28,0,2.35.26,3.2.8.85.53,1.53,1.21,2.04,2.03s.87,1.71,1.06,2.68.27,1.89.24,2.77h-10.81c-.02.63.05,1.23.22,1.8s.44,1.07.81,1.51c.37.44.85.79,1.42,1.05.58.26,1.26.39,2.04.39,1.01,0,1.83-.23,2.47-.7s1.06-1.17,1.27-2.12h2.35c-.32,1.62-1.01,2.84-2.1,3.66h0Zm-.57-9.28c-.22-.5-.5-.93-.87-1.3s-.79-.65-1.28-.87c-.49-.21-1.04-.32-1.63-.32s-1.17.11-1.66.32c-.49.22-.92.51-1.27.88s-.63.8-.84,1.3c-.21.49-.33,1.02-.36,1.58h8.3c-.04-.56-.16-1.09-.38-1.59h0Z"></path><path class="cls-1" d="m1707.82,22.15v2.1h-2.88v8.97c0,.28.02.5.07.67s.13.3.27.39c.13.09.31.15.54.18s.53.04.91.04h1.09v2.1h-1.81c-.61,0-1.14-.04-1.58-.13-.44-.08-.79-.24-1.06-.46-.27-.22-.47-.54-.6-.95-.13-.41-.2-.95-.2-1.62v-9.19h-2.46v-2.1h2.46v-4.33h2.38v4.33h2.88,0Z"></path><path class="cls-1" d="m1728.6,19.37c-.88-.64-2.02-.97-3.39-.97-.56,0-1.11.05-1.65.17-.54.11-1.02.3-1.44.56-.42.26-.75.61-1.01,1.05s-.38.98-.38,1.63c0,.61.18,1.11.54,1.5s.85.7,1.45.93c.61.24,1.29.44,2.05.6s1.54.33,2.33.52c.79.18,1.57.4,2.33.66.76.25,1.45.59,2.05,1.02s1.09.97,1.45,1.62.54,1.47.54,2.46c0,1.06-.24,1.97-.71,2.73-.48.75-1.09,1.37-1.83,1.85-.75.48-1.58.82-2.5,1.03-.92.21-1.84.32-2.75.32-1.12,0-2.17-.14-3.17-.42-1-.28-1.87-.7-2.63-1.27-.75-.57-1.35-1.29-1.79-2.18-.44-.88-.66-1.93-.66-3.14h2.51c0,.84.16,1.56.49,2.16.33.61.75,1.1,1.28,1.5.53.39,1.15.68,1.86.87s1.43.28,2.18.28c.6,0,1.19-.05,1.8-.17.61-.11,1.15-.3,1.63-.57s.88-.64,1.17-1.1.45-1.06.45-1.79c0-.69-.18-1.25-.54-1.68-.36-.43-.85-.78-1.45-1.05-.61-.27-1.29-.49-2.05-.66-.76-.17-1.54-.34-2.33-.52-.79-.18-1.57-.38-2.33-.61s-1.45-.54-2.05-.92c-.61-.38-1.09-.88-1.45-1.48-.36-.61-.54-1.36-.54-2.28,0-1.01.21-1.88.61-2.61.41-.74.96-1.34,1.63-1.81.68-.48,1.45-.83,2.32-1.06s1.76-.35,2.67-.35c1.02,0,1.97.12,2.85.36s1.64.62,2.3,1.14c.66.52,1.18,1.18,1.56,1.97.38.79.59,1.74.63,2.84h-2.51c-.15-1.43-.67-2.47-1.55-3.12h0Z"></path><path class="cls-1" d="m1746.54,35.67c-1.08.82-2.44,1.23-4.08,1.23-1.15,0-2.16-.18-3-.56-.85-.37-1.56-.89-2.14-1.56-.58-.67-1.01-1.47-1.3-2.4-.29-.93-.45-1.94-.49-3.04,0-1.1.17-2.11.5-3.02.34-.91.8-1.71,1.41-2.38s1.32-1.19,2.15-1.56,1.74-.56,2.73-.56c1.28,0,2.35.26,3.2.8.85.53,1.53,1.21,2.04,2.03s.87,1.71,1.06,2.68.27,1.89.24,2.77h-10.81c-.02.63.05,1.23.22,1.8s.44,1.07.81,1.51c.37.44.85.79,1.42,1.05.58.26,1.26.39,2.04.39,1.01,0,1.83-.23,2.47-.7s1.06-1.17,1.27-2.12h2.35c-.32,1.62-1.01,2.84-2.1,3.66h0Zm-.57-9.28c-.22-.5-.5-.93-.87-1.3s-.79-.65-1.28-.87c-.49-.21-1.04-.32-1.63-.32s-1.17.11-1.66.32c-.49.22-.92.51-1.27.88s-.63.8-.84,1.3c-.21.49-.33,1.02-.36,1.58h8.3c-.04-.56-.16-1.09-.38-1.59h0Z"></path><path class="cls-1" d="m1753.47,22.15v3.04h.05c.58-1.17,1.28-2.04,2.12-2.6s1.9-.82,3.18-.78v2.51c-.95,0-1.76.13-2.43.39s-1.21.64-1.62,1.15c-.41.5-.71,1.11-.89,1.83-.18.72-.28,1.54-.28,2.47v6.43h-2.38v-14.45h2.24Z"></path><path class="cls-1" d="m1765.64,36.6l-5.37-14.45h2.65l4.05,12.04h.05l3.94-12.04h2.49l-5.28,14.45h-2.54,0Z"></path><path class="cls-1" d="m1775.78,19.55v-2.91h2.38v2.91h-2.38Zm2.38,2.6v14.45h-2.38v-14.45h2.38Z"></path><path class="cls-1" d="m1790.48,24.67c-.6-.5-1.4-.75-2.4-.75-.86,0-1.58.16-2.15.48-.58.32-1.04.74-1.38,1.26-.35.52-.59,1.12-.74,1.8-.15.68-.22,1.38-.22,2.11,0,.67.08,1.32.24,1.96s.4,1.2.74,1.69.77.89,1.31,1.19c.54.3,1.18.45,1.93.45,1.17,0,2.09-.31,2.75-.92s1.06-1.48,1.22-2.6h2.43c-.26,1.79-.93,3.17-2,4.14-1.07.97-2.53,1.45-4.37,1.45-1.1,0-2.07-.18-2.92-.53-.85-.35-1.55-.86-2.12-1.51-.57-.65-1-1.43-1.28-2.33s-.43-1.89-.43-2.98.14-2.09.42-3.03c.28-.94.7-1.76,1.27-2.46.57-.7,1.28-1.25,2.14-1.65.86-.4,1.85-.6,2.99-.6.82,0,1.59.1,2.3.29.72.2,1.35.5,1.9.91.55.41,1,.93,1.36,1.55.35.62.58,1.37.67,2.22h-2.46c-.18-.91-.58-1.62-1.17-2.12h0Z"></path><path class="cls-1" d="m1807.07,35.67c-1.08.82-2.44,1.23-4.08,1.23-1.15,0-2.16-.18-3-.56-.85-.37-1.56-.89-2.14-1.56-.58-.67-1.01-1.47-1.3-2.4-.29-.93-.45-1.94-.49-3.04,0-1.1.17-2.11.5-3.02.34-.91.8-1.71,1.41-2.38s1.32-1.19,2.15-1.56c.83-.37,1.74-.56,2.73-.56,1.28,0,2.35.26,3.2.8.85.53,1.53,1.21,2.04,2.03s.87,1.71,1.06,2.68c.2.97.27,1.89.24,2.77h-10.81c-.02.63.05,1.23.22,1.8.17.57.44,1.07.81,1.51.37.44.85.79,1.42,1.05.58.26,1.26.39,2.04.39,1.01,0,1.83-.23,2.47-.7.64-.47,1.06-1.17,1.27-2.12h2.35c-.32,1.62-1.01,2.84-2.1,3.66h0Zm-.57-9.28c-.22-.5-.5-.93-.87-1.3-.36-.36-.79-.65-1.28-.87-.49-.21-1.04-.32-1.63-.32s-1.17.11-1.66.32c-.49.22-.92.51-1.27.88s-.63.8-.84,1.3c-.21.49-.33,1.02-.36,1.58h8.3c-.04-.56-.16-1.09-.38-1.59h0Z"></path><path class="cls-1" d="m1813.66,33.37c.22.36.52.65.88.87s.77.37,1.23.46c.46.09.93.14,1.41.14.37,0,.76-.03,1.17-.08.41-.05.79-.16,1.13-.31.35-.15.63-.37.85-.66.22-.29.34-.66.34-1.1,0-.62-.23-1.08-.7-1.4-.47-.32-1.05-.57-1.75-.77s-1.46-.37-2.28-.53c-.82-.16-1.58-.38-2.28-.67-.7-.29-1.28-.7-1.75-1.22s-.7-1.25-.7-2.18c0-.73.16-1.35.49-1.87.33-.52.74-.95,1.26-1.27s1.09-.57,1.73-.73,1.28-.24,1.91-.24c.82,0,1.58.07,2.26.21s1.3.38,1.83.73c.53.35.96.81,1.27,1.4.32.59.5,1.32.56,2.19h-2.38c-.04-.47-.16-.85-.36-1.16-.21-.31-.47-.55-.78-.74s-.67-.32-1.05-.4c-.38-.08-.77-.13-1.16-.13-.35,0-.71.03-1.08.09-.36.05-.7.15-.99.29s-.54.33-.73.56-.28.53-.28.91c0,.41.14.75.43,1.02s.66.49,1.1.67c.45.18.95.33,1.51.45.56.12,1.12.25,1.68.38.6.13,1.18.29,1.75.48.57.18,1.07.43,1.51.74.44.31.79.7,1.06,1.16s.4,1.04.4,1.73c0,.88-.18,1.6-.54,2.18s-.84,1.04-1.42,1.4c-.59.35-1.25.6-1.98.74-.74.14-1.47.21-2.19.21-.8,0-1.56-.08-2.29-.25-.73-.17-1.37-.44-1.93-.83-.56-.38-1.01-.88-1.34-1.51-.34-.62-.52-1.38-.56-2.28h2.38c.02.52.14.96.36,1.33h0Z"></path></g></g></g></svg>